<svg width="126" height="92" fill="none" xmlns="http://www.w3.org/2000/svg"><path d="M73.44 2.499h-1.913a.245.245 0 00-.245.245v2.163c0 .135.11.245.245.245h1.912c.136 0 .245-.11.245-.245V2.744a.245.245 0 00-.245-.245z" fill="#F28CDC"/><path d="M72.223.73h-40.39a5.181 5.181 0 00-5.18 5.182V85.93a5.181 5.181 0 005.18 5.181h40.39a5.181 5.181 0 005.181-5.18V5.91a5.181 5.181 0 00-5.18-5.18z" fill="#CB5E5B"/><path d="M71.826 1.244H32.23a5.08 5.08 0 00-5.08 5.08v79.192a5.08 5.08 0 005.08 5.08h39.596a5.08 5.08 0 005.08-5.08V6.325a5.08 5.08 0 00-5.08-5.08z" fill="#FA9C9B"/><path d="M59.068 4.856H44.989a.38.38 0 00-.38.381v.658c0 .21.17.38.38.38h14.079a.38.38 0 00.381-.38v-.658a.38.38 0 00-.381-.38z" fill="#485AF4"/><path fill-rule="evenodd" clip-rule="evenodd" d="M72.73 4.687a.88.88 0 11.003 1.76.88.88 0 01-.002-1.76z" fill="#485AF4"/><path style="mix-blend-mode:multiply" opacity=".5" fill-rule="evenodd" clip-rule="evenodd" d="M35.728 7.595h32.61c2.302 0 4.184 1.832 4.184 4.07V45.74c0 2.237-1.884 4.069-4.184 4.069h-32.61c-2.3 0-4.183-1.83-4.183-4.069V11.664c-.005-2.238 1.877-4.07 4.183-4.07z" fill="url(#paint0_linear)"/><path opacity=".5" fill-rule="evenodd" clip-rule="evenodd" d="M52.029 57.007a12.608 12.608 0 110 25.216 12.608 12.608 0 010-25.216zm0 3.059a9.55 9.55 0 100 19.1 9.55 9.55 0 000-19.1z" fill="#fff"/><path style="mix-blend-mode:multiply" opacity=".5" d="M54.678 51.587H49.38a2.249 2.249 0 00-2.25 2.249v31.558a2.249 2.249 0 002.25 2.249h5.298a2.249 2.249 0 002.248-2.249V53.836a2.249 2.249 0 00-2.248-2.25z" fill="url(#paint1_linear)"/><path d="M53.853 51.587h-3.65c-.855 0-1.548.693-1.548 1.548v32.96c0 .855.693 1.548 1.548 1.548h3.65c.855 0 1.548-.693 1.548-1.548v-32.96c0-.855-.693-1.548-1.548-1.548z" fill="url(#paint2_linear)"/><path d="M52.176 71.578a1.99 1.99 0 10-.282-3.971 1.99 1.99 0 00.282 3.971z" fill="#fff"/><path fill-rule="evenodd" clip-rule="evenodd" d="M52.029 61.249a1.44 1.44 0 11-.012 2.882 1.44 1.44 0 01.012-2.882zm0 13.853a1.441 1.441 0 11-.012 2.882 1.441 1.441 0 01.012-2.882zm0-19.426a.775.775 0 110 1.55.775.775 0 010-1.55z" fill="#fff"/><path d="M52.029 83.556a.774.774 0 100-1.548.774.774 0 000 1.548z" fill="#fff"/><path fill-rule="evenodd" clip-rule="evenodd" d="M36.913 9.136h30.231c2.133 0 3.878 1.698 3.878 3.771v31.594c0 2.074-1.746 3.772-3.878 3.772h-30.23c-2.134 0-3.88-1.698-3.88-3.772V12.91c0-2.078 1.746-3.774 3.88-3.774z" fill="#fff"/><path opacity=".5" fill-rule="evenodd" clip-rule="evenodd" d="M96.465 72.596a4.922 4.922 0 110 9.844 4.922 4.922 0 010-9.844zm0 1.258a3.663 3.663 0 10-.002 7.327 3.663 3.663 0 00.002-7.326z" fill="url(#paint3_linear)"/><path opacity=".5" fill-rule="evenodd" clip-rule="evenodd" d="M1.15 33.138h5.098a1.01 1.01 0 011.007 1.007v4.762a1.01 1.01 0 01-1.007 1.006H1.15a1.008 1.008 0 01-1.005-1.006v-4.762a1.01 1.01 0 011.005-1.007zm0 .73a.277.277 0 00-.276.276v4.763a.277.277 0 00.276.276h5.098a.277.277 0 00.276-.276v-4.762a.277.277 0 00-.276-.277H1.15z" fill="#fff"/><path style="mix-blend-mode:multiply" opacity=".5" fill-rule="evenodd" clip-rule="evenodd" d="M26.652 39.728H39.69c1.921 0 3.497 1.543 3.497 3.426v28.697c0 1.884-1.567 3.426-3.497 3.426H26.652V39.728z" fill="url(#paint4_linear)"/><path d="M37.794 41.871H14.313a3.012 3.012 0 00-3.012 3.012v25.232a3.012 3.012 0 003.012 3.012h23.48a3.012 3.012 0 003.013-3.012V44.883a3.012 3.012 0 00-3.012-3.012z" fill="#CB5E5B"/><path fill-rule="evenodd" clip-rule="evenodd" d="M24.929 53.558h2.279v.951a9.923 9.923 0 008.554-8.384h-.948v-2.52h2.519v2.52h-1.085a10.408 10.408 0 01-9.044 8.869v.241h8.403v-.844h2.119v2.108h-2.119v-.844h-8.4v.422h-2.52v-.425h-8.189v.844h-2.112v-2.115h2.118v.844h8.189v-.24a10.407 10.407 0 01-9.044-8.87h-1.085v-2.52h2.519v2.52h-.948a9.926 9.926 0 008.553 8.394v-.949l.241-.002zm12.317 1.304H36.09v1.155h1.156v-1.155zm-21.228 0h-1.15v1.155h1.155v-1.155h-.005zm20.834-10.78h-1.557v1.557h1.557v-1.556zm-20.257 0h-1.557v1.557h1.557v-1.556zm10.128 9.957h-1.555v1.555h1.555V54.04z" fill="#fff"/><path fill-rule="evenodd" clip-rule="evenodd" d="M26.055 44.48l2.29 2.79c-.602 1.964-1.673 4.147-1.673 6.222h-.462v-4.859a.893.893 0 00.7-.89.856.856 0 10-1.71 0 .894.894 0 00.7.89v4.86h-.463c0-2.076-1.085-4.405-1.673-6.224l2.29-2.788z" fill="#70C851"/><path d="M27.31 44.345h-2.513v1.519h2.513v-1.52z" fill="#485AF4"/><path fill-rule="evenodd" clip-rule="evenodd" d="M38.689 69.29h-2.116v-2.12h.834a11.355 11.355 0 00-22.702 0h.835v2.117h-2.118V67.17h.816a11.816 11.816 0 1123.633 0h.817v2.12zm-23.633-1.636h-1.152v1.155h1.155v-1.157l-.003.002zm23.15 0h-1.151v1.155h1.155l-.004-1.155z" fill="#fff"/><path fill-rule="evenodd" clip-rule="evenodd" d="M25.446 28.75H46.24a.902.902 0 01.9.898v2.159a.902.902 0 01-.9.898H25.446a.902.902 0 01-.9-.898v-2.159a.901.901 0 01.9-.898z" fill="#1C2570"/><path d="M43.169 30.144H28.517a.265.265 0 00-.265.265v.637c0 .146.119.265.265.265H43.17a.265.265 0 00.265-.265v-.637a.265.265 0 00-.265-.265z" fill="#D1D5F9"/><path fill-rule="evenodd" clip-rule="evenodd" d="M69.249 28.343c4.929-6.068 8.32-4.4 13.738.75-10.447-5.546-7.086 5.28-17.709 11.326-5.659 3.222-11.455.866-13.556-2.028-2.48-3.406-.97-5.564-3.848-11.973-2.376-5.296-6.24-5.648-11.6-4.794C40.877 12 52.385 8.602 58.957 14.702c6.963 6.47 2.17 9.988 3.833 14.938.88 2.615 3.265 2.643 6.458-1.297z" fill="#CB5E5B"/><path opacity=".5" fill-rule="evenodd" clip-rule="evenodd" d="M32.41 25.46c15.708-4.462 14.817 4.808 15.057 13.504.214 7.77 10.988 9.563 15.506 3.273 3.858-5.368 6.69-14.293 7.475-15.27-1.708 1.232-13.287 9.817-13.258 2.54.08-18.286-17.87-13.008-24.78-4.048z" fill="url(#paint5_linear)"/><path opacity=".5" fill-rule="evenodd" clip-rule="evenodd" d="M82.896 28.995a33.707 33.707 0 00-3.189-4.55c-6.117-7.4-6.15-1.085-7.025 3.991-.368 2.119-.206 4.638-1.59 6.954 3.345-4.435 4.148-10.757 11.736-6.286l.068-.11z" fill="url(#paint6_linear)"/><path fill-rule="evenodd" clip-rule="evenodd" d="M86.951 70.818c.008.723-2.83-.041-4.783-2.014l1.447-2.134c.877.775 3.325 3.159 3.336 4.148zm-3.045-6.556c-.06-2.796-4.944-8.75-5.232-9.097-.348-.416-.734.57-1.072 1.852-1.12 4.254.27 9.08 4.283 11.373l2.021-4.128z" fill="#1C2570"/><path fill-rule="evenodd" clip-rule="evenodd" d="M89.582 63.507c-12.747.589-12.483.128-20.498 9.487-.362.449-.77 1.038-1.142 1.447l-.353.251c-.33.383-.678.798-1.055 1.254-.378.456-.759.436-.989.045l-1.688.723-4.277-.026c1.096-.618 2.578-1.13 3.45-1.575 4.476-2.284 4.8-6.888 8.364-11.467 5.54-7.114 9.727-5.707 16.86-6.658a2.663 2.663 0 012.877 2.437c.122 1.474-.082 3.96-1.549 4.082z" fill="url(#paint7_linear)"/><path fill-rule="evenodd" clip-rule="evenodd" d="M89.583 63.508c-12.747.588-12.483.127-20.498 9.487-.228.278-.47.612-.71.922 1.93-5.436 5.788-9.575 9.713-11.737-.242-1.498-.497-2.402-.483-3.645 3.107-1.252 6.341-.965 10.65-1.54a2.665 2.665 0 012.878 2.436c.121 1.469-.082 3.955-1.55 4.077z" fill="url(#paint8_linear)"/><path fill-rule="evenodd" clip-rule="evenodd" d="M68.137 74.217c-1.054.456-2.05.844-2.982 1.085-1.166.293-2.267.255-3.672.583-1.005.241-2.198.723-2.786 1.467 1.964.165 3.936-.084 5.909-.113l-.018.307a14.707 14.707 0 001.567-.12c.632-.081.803-.132 1.184-.7.566-.845.626-1.258.798-2.509z" fill="url(#paint9_linear)"/><path fill-rule="evenodd" clip-rule="evenodd" d="M105.717 37.351c2.254.555 4.116 2.373 5.588 2.742 4.35 1.085 9.881-4.3 13.754.887 1.978 2.653.679 8.217-2.439 10.464-3.943 2.84-9.59 1.035-12.723-2.05-3.317-3.269-4.487-.81-7.328-2.078-5.52-2.466-2.802-11.429 3.148-9.965z" fill="url(#paint10_linear)"/><path fill-rule="evenodd" clip-rule="evenodd" d="M87.008 36.389c.008-.693-.069-.724.25-1.341.184-.34.298-.714.335-1.099.091-.664.12-1.728-.041-1.764-.12-.025-.256.253-.47.678a5.5 5.5 0 00-.678-.953c-.197-.24-.388-.499-.627-.603-.12-.05-.186-.025-.188.093 0 .174.194.416.388.724.113.176.232.45.29.542-.333.047-1.053.034-1.176.316-.103.234.27.578.425.749-.264.53-.35.796-.144 1.398.128.373.322.771.322 1.502l1.314-.242z" fill="url(#paint11_linear)"/><path fill-rule="evenodd" clip-rule="evenodd" d="M84.63 30.703a66.474 66.474 0 014.363 4.15c.844.876.188 1.634-.779.588-1.344-1.453-2.511-2.858-3.823-4.498l.24-.24z" fill="#8C75EA"/><path style="mix-blend-mode:multiply" opacity=".35" fill-rule="evenodd" clip-rule="evenodd" d="M84.63 30.703l.354.311a.398.398 0 01-.056.171c1.29 1.287 2.532 2.854 3.752 4.117.12.131.543.406.596-.068.362.682-.24 1.095-1.062.207-1.344-1.453-2.511-2.858-3.823-4.498l.24-.24z" fill="url(#paint12_linear)"/><path fill-rule="evenodd" clip-rule="evenodd" d="M83.52 31.077c-.716-.578-.716-1.478-.82-2.419.602.692.88.999 1.787 1.05.572.108.724 1.023.291 1.415-.227.208-.734.378-1.259-.046z" fill="url(#paint13_linear)"/><path fill-rule="evenodd" clip-rule="evenodd" d="M87.38 34.793c.11-.27.182-.554.213-.844.091-.664.12-1.727-.041-1.764-.1-.021-.21.167-.362.474-.111.215-.32.965-.407 1.372-.405.8.178 1.26.597.762z" fill="url(#paint14_linear)"/><path fill-rule="evenodd" clip-rule="evenodd" d="M85.504 33.727c.223.064.503.27 1.197.022-.075.61-.58.761-.417 1.705-.241-.652-.279-.983-.074-1.251-.526-.132-.663-.366-.706-.476z" fill="#FF8A79"/><path fill-rule="evenodd" clip-rule="evenodd" d="M86.824 66.304c-4.944.555-5.235 4.934-4.823 9.812a15.15 15.15 0 00.542 3.054l.256 1.681-.518 3.023-2.346 3.575c.077-1.255.148-2.579.262-3.568.638-5.611-4.423-12.033-2.274-18.189 1.311-3.754 5.257-5.247 11.593-7.106a2.654 2.654 0 013.365 1.7c1.05 3.377-.87 4.648-3.157 5.32-.966.287-1.996.599-2.9.698z" fill="url(#paint15_linear)"/><path fill-rule="evenodd" clip-rule="evenodd" d="M86.824 66.304c-4.944.555-5.234 4.934-4.823 9.812.076 1.034.258 2.058.542 3.054l.102.67c-2.05-4.01-2.816-8.48-1.53-12.444-1.215-1.288-1.649-2.412-1.826-4.019 1.941-2.164 5.386-3.376 10.227-4.791a2.654 2.654 0 013.366 1.7c1.052 3.385-.886 4.614-3.182 5.284-.96.283-1.978.635-2.876.734z" fill="url(#paint16_linear)"/><path fill-rule="evenodd" clip-rule="evenodd" d="M87.19 36.169c.763 4.354 2.895 8.544 8.923 8.071.838-.066 2.913-.184 3.591.731.994 1.343-.054 2.94-1.133 3.444-2.327 1.085-7.031.089-9.164-1.215-3.05-1.862-4.228-5.68-3.84-10.842.098-.398 1.354-.384 1.624-.19z" fill="url(#paint17_linear)"/><path style="mix-blend-mode:multiply" opacity=".35" fill-rule="evenodd" clip-rule="evenodd" d="M96.047 45.225c.836.083 1.72.184 2.18 1.226.674 1.528-.53 1.923-1.689 2.179-2.509.55-6.705-.677-8.492-2.51-2.05-2.108-2.806-5.813-2.472-9.767.804 8.851 6.528 11.261 10.473 8.872z" fill="url(#paint18_linear)"/><path fill-rule="evenodd" clip-rule="evenodd" d="M86.65 57.053c-.074-.437-.63-3.195-.103-3.376.39-.137 1.181.58 2.104 2.402l-2.002.974z" fill="#5352CF"/><path fill-rule="evenodd" clip-rule="evenodd" d="M90.703 53.83c-6.132 3.61-10.347 1.188-12.217 1.237.35.057.178.692.23 1.688.35 6.777 3.485 9.285 5.881 11.551.925.878 1.93 1.296 2.354 2.51-.223-6.616 3.034-3.85 6.224-6.853.915-.86 1.957-2.44 2.98-3.898l-5.452-6.235z" fill="url(#paint19_linear)"/><path fill-rule="evenodd" clip-rule="evenodd" d="M95.404 62.077c-2.91-1.72-5.802-4.008-7.618-6.881-.537-.844-.965-1.556-1.227-1.52 1.967-.421 3.166-.723 5.77-3.554 1.475-1.605 2.06-3.87 3.573-4.91 1.765-1.206 3.757-.916 5.257.177.655.483 2.705 1.664 2.98 2.366.371.944-1.048 2.13-1.545 3.486-1.218 3.32-5.132 7.899-7.19 10.836z" fill="#70C851"/><path fill-rule="evenodd" clip-rule="evenodd" d="M101.499 44.482c-.431.807-.542 1.035-.753 1.929-.638.686-2.306.405-1.984-1.043.26-.26.467-.566.61-.903l.965-.241 1.162.258z" fill="#FFA698"/><path fill-rule="evenodd" clip-rule="evenodd" d="M101.499 44.481a6.28 6.28 0 00-.493 1.005c-.482.324-1.58.25-2.163-.2.228-.213.418-.592.53-.825l.965-.241 1.161.261z" fill="url(#paint20_linear)"/><path fill-rule="evenodd" clip-rule="evenodd" d="M100.181 39.997c-.774 1.232-1.51 2.185-1.568 3.412-.053 1.052.595 1.286 1.379 1.309.783.023 1.24 0 1.958-.311.2 0 .383.082.653 0 .402-.13.824-.518.776-.94-.022-.188-.302-.208-.591-.027-.362.224-.305-.151-.185-.387.328-.648.362-1.14.594-1.874-1.087-.026-2.512-.067-3.016-1.182z" fill="url(#paint21_linear)"/><path fill-rule="evenodd" clip-rule="evenodd" d="M100.181 39.997a21 21 0 01-.362.56c.703.787 1.725 1.086 3.061.876-.107.697-.465 1.103-.562 1.59-.08.395-.014.625.231.661.345.051.408-.168.821-.074a.603.603 0 000-.148c-.021-.188-.301-.208-.59-.027-.362.224-.306-.151-.185-.387.328-.648.362-1.14.593-1.874-1.078-.02-2.503-.062-3.007-1.177z" fill="#FFA698"/><path fill-rule="evenodd" clip-rule="evenodd" d="M100.584 40.601c.892.68 2.753.873 3.294-.061.498-.859-.19-1.98-.964-2.59-2.118-1.672-4.286 1.161-2.33 2.651z" fill="#5A2D68"/><path fill-rule="evenodd" clip-rule="evenodd" d="M100.584 40.601c.821.625 2.46.844 3.135.143l.007-.06c-2.147-.07-3.569-.899-3.76-2.19-.292.66-.184 1.496.618 2.107z" fill="#22043D"/><path fill-rule="evenodd" clip-rule="evenodd" d="M82.512 78.922c-.192 1.132-.404 2.185-.713 3.091-.388 1.139-1.02 2.04-1.508 3.4-.35.97-.59 2.235-.283 3.135 1.206-1.56 2.069-3.349 3.115-5.018l.249.184c.276-.447.528-.907.756-1.38.276-.575.325-.746.055-1.376-.401-.936-.715-1.213-1.67-2.036z" fill="url(#paint22_linear)"/><path fill-rule="evenodd" clip-rule="evenodd" d="M104.136 47.66c5.387 5.486 8.538 3.617 14.228.07.947-.18 1.775 1.343 1.114 2.139-6.307 7.596-12.747 6.398-18.745 1.528-.882-.892-.833-2.748.059-3.63.893-.881 2.459-1 3.344-.107z" fill="url(#paint23_linear)"/><path style="mix-blend-mode:multiply" opacity=".35" fill-rule="evenodd" clip-rule="evenodd" d="M95.404 62.078c1.03-1.902 5.083-10.635 6.012-12.211.29.541 4.727 3.033 6.183 3.431 5.161 1.411 9.396-1.474 11.884-3.429-5.839 7.038-11.792 6.528-17.402 2.55-1.571 3.163-4.86 7.055-6.677 9.659z" fill="url(#paint24_linear)"/><path fill-rule="evenodd" clip-rule="evenodd" d="M116.443 45.757l5.859 6.46a.706.706 0 01-.048 1.002l-4.483 4.068a.71.71 0 01-1.001-.048l-5.865-6.463a.71.71 0 01.05-1.001l4.488-4.068a.71.71 0 011 .05z" fill="#273087"/><path fill-rule="evenodd" clip-rule="evenodd" d="M116.382 46.26l5.426 5.973a.637.637 0 01-.044.898l-4.024 3.652a.64.64 0 01-.899-.043l-5.426-5.974a.637.637 0 01.044-.898l4.025-3.654a.637.637 0 01.898.045z" fill="#DBE9FF"/><path fill-rule="evenodd" clip-rule="evenodd" d="M120.307 50.061c.566-.65-.193-1.938-.891-2.459-.375-.28-.765-.126-1.369.374-.286.241-.639.724-.542.855.176.241.81-.582 1.402-.55a3.88 3.88 0 00-.685.745c-.171.242-.18.389.163.735.241.241.53.463.773.19.385-.436.658-.3 1.149.11z" fill="url(#paint25_linear)"/><path fill-rule="evenodd" clip-rule="evenodd" d="M118.305 53.002c1.368-.413 1.763.134 2.062 1.393l-.047.041c-1.011-1.72-1.677.242-3.955.063-1.251-.099-1.92-1.1-1.943-1.79-.028-.812.447-.993.681-2.328.194-1.1-.385-1.576-1.332-2.018 1.776-1.038 3.979-.337 4.368 1.35.411 1.784-.734 1.827-1.004 2.797-.138.51.235.774 1.17.492z" fill="url(#paint26_linear)"/><path opacity=".5" fill-rule="evenodd" clip-rule="evenodd" d="M112.858 48.6c2.839.986 1.713 2.35.823 3.739a1.36 1.36 0 00-.223.682l1.454 1.599c.298.05.605.023.888-.082 1.197-.44 2.615-1.557 2.845-1.629-.406.013-3.182.131-2.39-1.027 1.915-2.8-1.191-3.923-3.275-3.397l-.122.116z" fill="url(#paint27_linear)"/><path opacity=".5" fill-rule="evenodd" clip-rule="evenodd" d="M120.422 54.344a6.64 6.64 0 00-.027-.835c-.175-1.842-.864-.844-1.553-.12-.287.299-.535.717-1.006.938.979-.334 1.77-1.206 2.479.12l.107-.103z" fill="url(#paint28_linear)"/><defs><linearGradient id="paint0_linear" x1="63470.6" y1="-20612.7" x2="70952.5" y2="-10729.2" gradientUnits="userSpaceOnUse"><stop stop-color="#FD90DA"/><stop offset="1" stop-color="#8E6DFD"/></linearGradient><linearGradient id="paint1_linear" x1="21103.1" y1="18795" x2="24934.2" y2="23855.4" gradientUnits="userSpaceOnUse"><stop stop-color="#FD90DA"/><stop offset="1" stop-color="#8E6DFD"/></linearGradient><linearGradient id="paint2_linear" x1="14279.6" y1="28645.9" x2="15750.9" y2="28427.1" gradientUnits="userSpaceOnUse"><stop stop-color="#CB5E5B"/><stop offset="1" stop-color="#FF8ADC"/></linearGradient><linearGradient id="paint3_linear" x1="25433.6" y1="8091.63" x2="25072.8" y2="7516.25" gradientUnits="userSpaceOnUse"><stop stop-color="#6D6AFE"/><stop offset="1" stop-color="#3FB0F7"/></linearGradient><linearGradient id="paint4_linear" x1="31925.8" y1="10518.3" x2="35929.5" y2="15808.1" gradientUnits="userSpaceOnUse"><stop stop-color="#FD90DA"/><stop offset="1" stop-color="#8E6DFD"/></linearGradient><linearGradient id="paint5_linear" x1="84792.6" y1="10312.5" x2="82587" y2="13255.9" gradientUnits="userSpaceOnUse"><stop stop-color="#965CF2"/><stop offset="1" stop-color="#F3A4A3"/></linearGradient><linearGradient id="paint6_linear" x1="28598.1" y1="4867.22" x2="28139" y2="6397.59" gradientUnits="userSpaceOnUse"><stop stop-color="#965CF2"/><stop offset="1" stop-color="#FF8ADC"/></linearGradient><linearGradient id="paint7_linear" x1="74785.3" y1="13831.8" x2="75344.7" y2="14328.5" gradientUnits="userSpaceOnUse"><stop stop-color="#FFB89E"/><stop offset="1" stop-color="#FFA799"/></linearGradient><linearGradient id="paint8_linear" x1="55490.8" y1="11939.5" x2="54704.9" y2="11422.8" gradientUnits="userSpaceOnUse"><stop stop-color="#FF8A78"/><stop offset="1" stop-color="#FFA799"/></linearGradient><linearGradient id="paint9_linear" x1="21602.5" y1="2652.36" x2="21637.9" y2="2743.2" gradientUnits="userSpaceOnUse"><stop stop-color="#3E4795"/><stop offset="1" stop-color="#273088"/></linearGradient><linearGradient id="paint10_linear" x1="71445.9" y1="7754.92" x2="71379" y2="8367.46" gradientUnits="userSpaceOnUse"><stop stop-color="#5A2D68"/><stop offset="1" stop-color="#22043D"/></linearGradient><linearGradient id="paint11_linear" x1="6516.22" y1="2312.24" x2="6450.67" y2="2361.98" gradientUnits="userSpaceOnUse"><stop stop-color="#FFB89E"/><stop offset="1" stop-color="#FFA799"/></linearGradient><linearGradient id="paint12_linear" x1="12429.6" y1="2200.29" x2="12537.9" y2="2332.49" gradientUnits="userSpaceOnUse"><stop stop-color="#A77EF7"/><stop offset="1" stop-color="#5E65D6"/></linearGradient><linearGradient id="paint13_linear" x1="5792.46" y1="1108.36" x2="5799.72" y2="1097.62" gradientUnits="userSpaceOnUse"><stop stop-color="#FF66BC"/><stop offset=".56" stop-color="#FF8ADC"/><stop offset="1" stop-color="#FFBBA8"/></linearGradient><linearGradient id="paint14_linear" x1="2622.13" y1="1240.92" x2="2635.12" y2="1247.16" gradientUnits="userSpaceOnUse"><stop stop-color="#FFB89E"/><stop offset="1" stop-color="#FFA799"/></linearGradient><linearGradient id="paint15_linear" x1="38175.1" y1="22209" x2="38790.2" y2="22152.9" gradientUnits="userSpaceOnUse"><stop stop-color="#FFB89E"/><stop offset="1" stop-color="#FFA799"/></linearGradient><linearGradient id="paint16_linear" x1="34479.8" y1="15531.3" x2="33774.3" y2="15622.2" gradientUnits="userSpaceOnUse"><stop stop-color="#FF8A78"/><stop offset="1" stop-color="#FFA799"/></linearGradient><linearGradient id="paint17_linear" x1="36935.6" y1="6553.74" x2="36718.6" y2="6971.37" gradientUnits="userSpaceOnUse"><stop stop-color="#70C851"/><stop offset="1" stop-color="#70C851"/></linearGradient><linearGradient id="paint18_linear" x1="32872.7" y1="6388.86" x2="31905.1" y2="6111.14" gradientUnits="userSpaceOnUse"><stop stop-color="#A77EF7"/><stop offset="1" stop-color="#5E65D6"/></linearGradient><linearGradient id="paint19_linear" x1="43373.6" y1="10537.4" x2="44006" y2="11249.4" gradientUnits="userSpaceOnUse"><stop stop-color="#3E4795"/><stop offset="1" stop-color="#273088"/></linearGradient><linearGradient id="paint20_linear" x1="6982.75" y1="808.311" x2="6982.29" y2="816.867" gradientUnits="userSpaceOnUse"><stop stop-color="#FF8A78"/><stop offset="1" stop-color="#FFA799"/></linearGradient><linearGradient id="paint21_linear" x1="12507.8" y1="2394.52" x2="12488.5" y2="2504.49" gradientUnits="userSpaceOnUse"><stop stop-color="#FFB89E"/><stop offset="1" stop-color="#FFA799"/></linearGradient><linearGradient id="paint22_linear" x1="10957.1" y1="8244.75" x2="11087.7" y2="8228.47" gradientUnits="userSpaceOnUse"><stop stop-color="#3E4795"/><stop offset="1" stop-color="#273088"/></linearGradient><linearGradient id="paint23_linear" x1="52531.9" y1="4549.23" x2="52527.4" y2="5305.56" gradientUnits="userSpaceOnUse"><stop stop-color="#70C851"/><stop offset="1" stop-color="#5E65D6"/></linearGradient><linearGradient id="paint24_linear" x1="63325.4" y1="7353.77" x2="64107.6" y2="8308.09" gradientUnits="userSpaceOnUse"><stop stop-color="#A77EF7"/><stop offset="1" stop-color="#5E65D6"/></linearGradient><linearGradient id="paint25_linear" x1="8409.14" y1="1485.67" x2="8404.34" y2="1520.18" gradientUnits="userSpaceOnUse"><stop stop-color="#FFB89E"/><stop offset="1" stop-color="#FFA799"/></linearGradient><linearGradient id="paint26_linear" x1="18140.5" y1="3864.81" x2="18035" y2="3940.14" gradientUnits="userSpaceOnUse"><stop stop-color="#1C8EF4"/><stop offset="1" stop-color="#00CFDD"/></linearGradient><linearGradient id="paint27_linear" x1="15892.1" y1="3655.35" x2="15731" y2="3683.52" gradientUnits="userSpaceOnUse"><stop stop-color="#965CF2"/><stop offset="1" stop-color="#FF8ADC"/></linearGradient><linearGradient id="paint28_linear" x1="7263.53" y1="1224.95" x2="7232.49" y2="1262.29" gradientUnits="userSpaceOnUse"><stop stop-color="#965CF2"/><stop offset="1" stop-color="#FF8ADC"/></linearGradient></defs></svg>