<svg width="125" height="99" fill="none" xmlns="http://www.w3.org/2000/svg"><path opacity=".5" fill-rule="evenodd" clip-rule="evenodd" d="M11.123 18.547a3.358 3.358 0 100 6.715 3.358 3.358 0 000-6.715z" fill="url(#paint0_linear)"/><path opacity=".5" fill-rule="evenodd" clip-rule="evenodd" d="M98.99 9.708a3.16 3.16 0 100 6.32 3.16 3.16 0 000-6.32z" fill="url(#paint1_linear)"/><path opacity=".5" fill-rule="evenodd" clip-rule="evenodd" d="M116.64 46.897a5.014 5.014 0 100 10.028 5.014 5.014 0 000-10.028z" fill="url(#paint2_linear)"/><path opacity=".5" d="M59.23 9.701a4.506 4.506 0 10-1.705-8.85 4.506 4.506 0 001.704 8.85z" fill="url(#paint3_linear)"/><path d="M16.207 34.558v45.357a4.641 4.641 0 004.641 4.641h72.347a4.641 4.641 0 004.641-4.64V34.557a4.641 4.641 0 00-4.64-4.64H20.847a4.641 4.641 0 00-4.641 4.64z" fill="#303A7D"/><path d="M18.229 36.071V78.4a4.252 4.252 0 004.251 4.251h69.082a4.252 4.252 0 004.252-4.251V36.07a4.252 4.252 0 00-4.252-4.251H22.48a4.252 4.252 0 00-4.252 4.251z" fill="#D1B1FF"/><path fill-rule="evenodd" clip-rule="evenodd" d="M57.022 23.567a4.108 4.108 0 110 8.216 4.108 4.108 0 010-8.216zm0 1.065a3.045 3.045 0 100 6.09 3.045 3.045 0 000-6.09zm-3.475 8.391h6.95a.327.327 0 01.3.347v.601a.328.328 0 01-.3.349h-6.95a.329.329 0 01-.3-.349v-.601a.327.327 0 01.3-.347z" fill="#fff"/><path opacity=".5" d="M63.453 35.695H50.589a.347.347 0 00-.347.348v.602c0 .192.156.348.348.348h12.863a.347.347 0 00.347-.348v-.602a.347.347 0 00-.347-.348z" fill="#fff"/><path fill-rule="evenodd" clip-rule="evenodd" d="M16.422 45.952c3.192-.692 5.812-3.95 7.174-7.686.515-1.406.51-1.757.396-2.861-.122-1.179-.105-1.598.29-2.382.418-.83.734-.693.563.086-.066.304-.237.439-.008 1.108.658-1.487 1.123-3.888 2.773-3.609-.076.136-.281.472-.503 1.496-.222 1.025-.413 2.718-.449 2.813-.286.778-.654 1.377-.839 2.542-1.126 7.06-2.012 10-8.033 12.907l-1.795-2.411.431-2.003z" fill="url(#paint4_linear)"/><path fill-rule="evenodd" clip-rule="evenodd" d="M16.422 45.952c.33-.073.654-.17.968-.294a9.478 9.478 0 011.569 2.657c3.636-2.34 5.342-5.868 6.86-10.856-1.126 7.06-2.012 10-8.033 12.907l-1.795-2.411.431-2.003z" fill="url(#paint5_linear)"/><path fill-rule="evenodd" clip-rule="evenodd" d="M19.789 43.97c2.057-1.863 3.635-4.596 4.136-6.93.136-.271 1.692-.225 2.064.355-.75 4.707-1.523 7.607-3.676 9.883-1.558 1.646-4.384 3.379-6.864 3.952-1.946.448-3.292.014-3.72-1.74-.144-.592.159-2.162 1.623-2.788 2.665-1.14 3.843-.385 6.437-2.733z" fill="#70C851"/><path style="mix-blend-mode:multiply" opacity=".5" fill-rule="evenodd" clip-rule="evenodd" d="M25.989 37.394c-.75 4.707-1.523 7.608-3.676 9.883-1.558 1.646-4.384 3.38-6.864 3.952-1.946.449-3.292.015-3.72-1.74 6.713.956 11.893-3.436 14.26-12.095z" fill="url(#paint6_linear)"/><path fill-rule="evenodd" clip-rule="evenodd" d="M29.79 16.3l11.622.107h9.105l-.015 22.165a2.973 2.973 0 01-2.958 2.95l-17.848-.015.093-25.206z" fill="#F95DB0" opacity=".35"/><path d="M45.589 9.892H22.653a2.72 2.72 0 00-2.72 2.719v23.647a2.72 2.72 0 002.72 2.719h22.936a2.72 2.72 0 002.719-2.72V12.611a2.72 2.72 0 00-2.72-2.72z" fill="url(#paint7_linear)"/><path fill-rule="evenodd" clip-rule="evenodd" d="M48.308 31.435v4.823a2.729 2.729 0 01-2.72 2.72H22.655a2.73 2.73 0 01-2.72-2.72v-4.823h28.374z" fill="#fff"/><path opacity=".35" d="M27.396 32.8h-3.795a.45.45 0 00-.45.45v3.912c0 .248.202.45.45.45h3.795a.45.45 0 00.45-.45v-3.913a.45.45 0 00-.45-.45z" fill="#03C8DE"/><path d="M25.068 33.74h-.963v2.931h.963V33.74zm1.825 0h-.963v2.931h.963V33.74z" fill="#03C8DE"/><path opacity=".35" d="M36.018 32.8h-3.794a.45.45 0 00-.45.45v3.912c0 .248.2.45.45.45h3.794a.45.45 0 00.45-.45v-3.913a.45.45 0 00-.45-.45z" fill="#03C8DE"/><path fill-rule="evenodd" clip-rule="evenodd" d="M32.852 33.637l2.539 1.568-2.54 1.569v-3.137z" fill="#03C8DE"/><path opacity=".35" d="M44.642 32.8h-3.796a.45.45 0 00-.45.45v3.912c0 .248.202.45.45.45h3.796a.45.45 0 00.45-.45v-3.913a.45.45 0 00-.45-.45z" fill="#03C8DE"/><path fill-rule="evenodd" clip-rule="evenodd" d="M41.997 33.741l2.376 1.467-2.376 1.466V33.74z" fill="#03C8DE"/><path d="M41.66 33.736h-.545v2.931h.545v-2.931z" fill="#03C8DE"/><path fill-rule="evenodd" clip-rule="evenodd" d="M31.056 24.23h6.137a.29.29 0 01.27.306v.531a.29.29 0 01-.27.307h-6.137a.29.29 0 01-.27-.307v-.53a.29.29 0 01.27-.307z" fill="#fff"/><path opacity=".5" d="M39.8 26.59H28.443a.307.307 0 00-.307.306v.531c0 .17.137.307.306.307H39.8c.17 0 .307-.137.307-.307v-.53a.307.307 0 00-.307-.308z" fill="#fff"/><path opacity=".5" fill-rule="evenodd" clip-rule="evenodd" d="M37.905 15.249c.087.365.1.796.233 1.19.302.89.65.902.607 1.756-.067 1.337-.634 1.19-1.08 2.102-.414.852-.158 2.451-3.678 1.919-.586-.088-1.67.228-2.452.135-1.558-.19-1.081-2.104-1.299-2.79-.26-.832-1.134-1.216-.997-2.323.168-1.351 1.216-1.03 1.687-2.186.617-1.531 1.907-2.257 3.204-1.723 1.168.48 2.027-.12 2.783.394.33.227.782.676.986 1.525l.006.001zm-3.776-.946a3.514 3.514 0 100 7.028 3.514 3.514 0 000-7.028z" fill="#fff"/><path opacity=".5" fill-rule="evenodd" clip-rule="evenodd" d="M31.74 13.134c.405-.049.887 0 1.335-.101 1.017-.215 1.075-.595 2.011-.437 1.457.247 1.217.849 2.163 1.453.882.565 2.669.492 1.621 4.284-.172.631.034 1.862-.172 2.703-.406 1.685-2.45.918-3.23 1.062-.947.177-1.48 1.082-2.678.792-1.46-.36-.972-1.471-2.181-2.135-1.599-.876-2.227-2.385-1.473-3.74.675-1.216.135-2.244.794-3.001.294-.334.84-.77 1.802-.884l.008.004zm-1.523 4.02a3.882 3.882 0 107.71.912 3.882 3.882 0 00-7.71-.911z" fill="#fff"/><path fill-rule="evenodd" clip-rule="evenodd" d="M34.136 13.676a4.144 4.144 0 11.003 8.289 4.144 4.144 0 01-.003-8.289zm0 1.073a3.072 3.072 0 100 6.144 3.072 3.072 0 000-6.144z" fill="#fff"/><path fill-rule="evenodd" clip-rule="evenodd" d="M34.135 15.394a1.32 1.32 0 110 2.64 1.32 1.32 0 010-2.64zm1.02 2.69a1.26 1.26 0 01.998 1.23v.017a2.595 2.595 0 01-4.036 0v-.018a1.26 1.26 0 01.999-1.228 1.55 1.55 0 002.04 0z" fill="#fff"/><path fill-rule="evenodd" clip-rule="evenodd" d="M84.337 39.338l-29.754.015c-.78 0-1.419.858-1.419 1.903v20.407c0 1.045.64 1.904 1.42 1.903l29.753-.015V39.338z" fill="#F95DB0" opacity=".35"/><path fill-rule="evenodd" clip-rule="evenodd" d="M56.556 39.242h31.04c.744 0 1.352.79 1.352 1.757v18.772c0 .961-.61 1.75-1.352 1.75h-31.04c-.742 0-1.352-.788-1.352-1.75V41c0-.969.608-1.757 1.352-1.757z" fill="url(#paint8_linear)"/><path d="M86.633 57.482H57.519a.404.404 0 00-.404.404v.905c0 .223.181.404.404.404h29.114a.404.404 0 00.404-.404v-.904a.404.404 0 00-.404-.405z" fill="#14A0EC"/><path opacity=".5" fill-rule="evenodd" clip-rule="evenodd" d="M57.62 57.55h12.9a.376.376 0 01.375.373v.834a.377.377 0 01-.376.373H57.621a.376.376 0 01-.376-.373v-.834a.376.376 0 01.376-.373z" fill="#00EDFF"/><path fill-rule="evenodd" clip-rule="evenodd" d="M103.93 60.196l-.653 1.017 1.146 1.269s.563-.008.607-.023c.045-.015.654-.82.654-.82l-.312-.662-1.442-.78z" fill="url(#paint9_linear)"/><path fill-rule="evenodd" clip-rule="evenodd" d="M74.196 53.719c-.293-.929-.252-1.24-.075-1.317.177-.075.365.287.675.915.357.714.794 1.423 1.476 1.828l-.912 1.339c-.81-.783-1.608-.899-2.326-1.411-.9-.643-1.195-1.311-1.822-2.46-.923-1.693.549-1.742 1.429-.743.588.662 1.054 1.603 1.555 1.849z" fill="url(#paint10_linear)"/><path fill-rule="evenodd" clip-rule="evenodd" d="M92.873 94.742c.135.646.523 1.139.585 1.613.108.811-.363 1.64-1.331 1.648l-6.326.056c.335-2.162 3.716-.962 4.853-3.36l1.472.085.747-.042z" fill="url(#paint11_linear)"/><path style="mix-blend-mode:multiply" opacity=".5" fill-rule="evenodd" clip-rule="evenodd" d="M92.872 94.742c.069.296.172.582.31.854-.076.605-2.271.935-3.024-.18.204-.21.37-.452.495-.716l1.472.084.747-.042z" fill="url(#paint12_linear)"/><path fill-rule="evenodd" clip-rule="evenodd" d="M96.061 65.104c-1.427 4.545-2.581 8.266-3.297 11.85-1.081 5.383-1.509 10.676-2.486 17.765.825.878 2.584.675 3.026.484 3.65-13.785 4.968-16.467 11.908-27.664l-1.647-5.3-5.659 1.36-1.845 1.505z" fill="url(#paint13_linear)"/><path style="mix-blend-mode:multiply" opacity=".5" fill-rule="evenodd" clip-rule="evenodd" d="M99.4 70.336c-2.483 4.102-5.867 15.272-6.092 24.868 3.144-11.893 4.56-15.52 9.338-23.47L99.4 70.336z" fill="url(#paint14_linear)"/><path fill-rule="evenodd" clip-rule="evenodd" d="M117.204 67.416c.315-.579.331-1.216.589-1.612.444-.695 1.333-1.022 2.079-.406l4.88 4.026c-1.646 1.44-3.465-1.654-5.876-.549l-1.081-1.01-.591-.45z" fill="url(#paint15_linear)"/><path style="mix-blend-mode:multiply" opacity=".5" fill-rule="evenodd" clip-rule="evenodd" d="M117.204 67.416a3.81 3.81 0 00.311-.853c.449-.415 2.341.743 2.2 2.081-.291.03-.574.108-.839.231l-1.081-1.01-.591-.45z" fill="url(#paint16_linear)"/><path fill-rule="evenodd" clip-rule="evenodd" d="M95.832 65.282c2.584 5.01 4.491 9.156 8.875 11.506 6.198 3.321 11.369-3.858 14.903-7.888-.987-1.6-1.525-1.86-2.542-2.149-3.011 2.503-7.063 6.138-9.542 4.37-.777-.556-1.239-1.806-1.671-3.582-.441-1.806-.779-3.504-1.857-4.952-.406-.54-.922-.982-1.505-1.458l-6.661 4.153z" fill="url(#paint17_linear)"/><path style="mix-blend-mode:multiply" opacity=".5" fill-rule="evenodd" clip-rule="evenodd" d="M95.832 65.282c2.584 5.01 4.491 9.157 8.875 11.507 6.198 3.32 11.369-3.859 14.903-7.889-9.121 9.663-16.941 8.841-23.778-3.618z" fill="url(#paint18_linear)"/><path fill-rule="evenodd" clip-rule="evenodd" d="M88.456 49.121c.2 1.487.488 2.846 2.006 4.029l-2.56 1.757c-.278-1.546-.517-2.591-1.235-3.617l1.396-2.06.393-.109z" fill="#FFA698"/><path fill-rule="evenodd" clip-rule="evenodd" d="M88.456 49.121a9.28 9.28 0 00.398 1.842c.142.599-.804 1.745-1.638 1.308a5.496 5.496 0 00-.549-.983l1.396-2.06.393-.107z" fill="url(#paint19_linear)"/><path fill-rule="evenodd" clip-rule="evenodd" d="M84.05 48.288c.895 2.958 1.285 4.336 2.123 4.08.342-.103.922-.675 1.524-1.314.9-.96.195-2.418-.227-4.163l-1.79-.788-1.63 2.184z" fill="url(#paint20_linear)"/><path fill-rule="evenodd" clip-rule="evenodd" d="M84.05 48.287l.162.54c.907.271 1.965-.838 2.215-1.07.369.878.896 1.92 1.684 2.421.126-.886-.333-2.008-.64-3.283l-1.791-.788-1.63 2.18z" fill="#FFA698"/><path fill-rule="evenodd" clip-rule="evenodd" d="M75.822 54.449c3.434 1.973 5.676 2.507 7.177 2.062 1.246-.368 2.248-1.243 3.88-2.654 1.487-1.287 2.607-2.313 4.602-2.688 2.086-.392 4.595-.19 6.097.082 2.985.54 5.946 1.876 7.254 4.18.946 1.654.934 3.698.927 6.421-.194-.135-2.119-1.39-2.225-1.487-.833-4.427-1.709-4.612-5.406-5 1.946 1.596 3.534 3.379 5.264 4.875.767.666 1.455 1.069 2.4 1.732-2.499 2.659-6.72 4.325-10.243 4.136-2.027-3.341-4.14-4.032-6.768-6.79-5.788 2.617-8.386 1.964-13.949-2.838-.108-1.118.348-1.73.99-2.031z" fill="url(#paint21_linear)"/><path style="mix-blend-mode:multiply" opacity=".5" fill-rule="evenodd" clip-rule="evenodd" d="M97.346 54.527c5.714.196 5.879 2.274 6.194 5.835-.833-4.427-1.709-4.61-5.406-5a3.226 3.226 0 01-.788-.835z" fill="url(#paint22_linear)"/><path style="mix-blend-mode:multiply" opacity=".5" fill-rule="evenodd" clip-rule="evenodd" d="M89.248 57.388c1.53 2.433 4.809 4.837 6.297 8.65-2.027-3.341-4.098-3.982-6.725-6.74-5.79 2.616-8.43 1.985-13.992-2.822 3.414 2.49 8.354 4.782 14.42.912z" fill="url(#paint23_linear)"/><path fill-rule="evenodd" clip-rule="evenodd" d="M85.608 45.161c3.637-5.437 8.306-2.973 11.082-3.176 3.911-.28 4.711-2.637 6.996-3.568 3.549-1.443 6.994-.443 8.785 3.317 2.057 4.3-1.589 13.795-8.797 11.622-2.366-.712-3.514-2.878-5.776-2.716-1.501.108-6.018 3.108-9.439-.218-.96-.93-1.671-2.247-1.977-3.084-.488.557-1.228.998-1.873 1.107-1.604.27-2.54-1.005-2.329-2.126.336-1.743 2.391-1.705 3.328-1.158z" fill="url(#paint24_linear)"/><path fill-rule="evenodd" clip-rule="evenodd" d="M113.005 45.433c-.397 4.44-3.825 9.585-9.325 7.93-2.367-.713-3.514-2.88-5.776-2.717-1.502.108-6.019 3.108-9.44-.218-.959-.931-1.67-2.247-1.976-3.084-.488.557-1.229.998-1.873 1.107-1.217.21-2.053-.481-2.29-1.316 1.331 1.03 3.109.658 4.364-.77 3.033 3.032 4.641 3.436 6.855 3.062 3.345-.566 4.308-1.081 5.54-1.18 2.043-.154 3.515 1.892 5.788 2.345 2.451.488 6.568-.725 8.133-5.159z" fill="#22043D"/><path d="M75.983 52.197a5.717 5.717 0 10-8.085-8.085 5.717 5.717 0 008.085 8.085z" fill="url(#paint25_linear)"/><path fill-rule="evenodd" clip-rule="evenodd" d="M69.584 45.507l6.184 2.67-6.184 2.671v-5.34z" fill="#fff"/><path fill-rule="evenodd" clip-rule="evenodd" d="M74.09 53.538c-.292-.93-.253-1.242-.076-1.318.178-.075.35.296.676.915l.27.5-1.117.967.247-1.064z" fill="url(#paint26_linear)"/><path fill-rule="evenodd" clip-rule="evenodd" d="M29.693 46.571l19.986.017c.514 0 .935.559.935 1.24v12.774c0 .676-.421 1.242-.935 1.242l-19.986-.016V46.571z" fill="#F95DB0" opacity=".35"/><path fill-rule="evenodd" clip-rule="evenodd" d="M27.517 46.663h20.259c.485 0 .882.466.882 1.035v11.1c0 .569-.398 1.035-.882 1.035H27.517c-.483 0-.882-.465-.882-1.035v-11.1c0-.57.397-1.035.882-1.035z" fill="#fff"/><path fill-rule="evenodd" clip-rule="evenodd" d="M46.283 52.678l-5.563-3.251.475-1.414 6.757 3.95-.574 1.713-9.688 4.807v-.019l.668-1.99 7.925-3.795z" fill="url(#paint27_linear)"/><path fill-rule="evenodd" clip-rule="evenodd" d="M34.97 58.794l3.719-11.09 1.601-.002-3.72 11.092h-1.6z" fill="url(#paint28_linear)"/><path fill-rule="evenodd" clip-rule="evenodd" d="M29.008 53.818l5.563 3.253-.475 1.412-6.757-3.95.573-1.711 9.689-4.809v.02l-.668 1.99-7.925 3.795z" fill="url(#paint29_linear)"/><path fill-rule="evenodd" clip-rule="evenodd" d="M12.715 95.074c-.135.676-.54 1.183-.608 1.675-.113.848.377 1.701 1.38 1.71l6.565.059c-.347-2.244-3.856-1-5.036-3.487l-1.527.086-.774-.043z" fill="url(#paint30_linear)"/><path style="mix-blend-mode:multiply" opacity=".5" fill-rule="evenodd" clip-rule="evenodd" d="M12.714 95.074c-.038.261-.292.829-.373 1.02.615.425 3.033.786 3.579.038-.27-.23-.702-.63-.88-1.005l-1.553-.005-.773-.048z" fill="url(#paint31_linear)"/><path fill-rule="evenodd" clip-rule="evenodd" d="M4.4 93.148c-.287 1.004-.737 2.452-.693 3.479.027.653.689.393 1.054.955.135.213 0 .618-.406.664-.835.095-2.727-.045-3.368-.128-.675-.088-.197-.65-.06-2.125.03-.335.051-.64-.072-.849-.242-.405-.281-.81-.031-1.351.281-.608.86-.72 1.342-1.487l2.234.842z" fill="url(#paint32_linear)"/><path style="mix-blend-mode:multiply" opacity=".5" fill-rule="evenodd" clip-rule="evenodd" d="M4.314 93.298a38.39 38.39 0 00-.405 1.55c-1.145-.348-2.256-.766-2.664-1.566.162-.149.766-.724.922-.969l2.147.985z" fill="url(#paint33_linear)"/><path fill-rule="evenodd" clip-rule="evenodd" d="M10.367 62.398c-.213 2.512-.095 4.84-.206 7.353-.489 11.016-2.595 12.005-8.438 22.773.734 1.474 2.36 1.696 3.407 1.292 9.178-13.196 10.552-15.37 12.983-30.773l-7.746-.645z" fill="url(#paint34_linear)"/><path style="mix-blend-mode:multiply" opacity=".5" fill-rule="evenodd" clip-rule="evenodd" d="M12.609 63.767c-.212 2.513-.257 8.07-.368 10.583-.319 7.162-4.84 14.366-6.892 19.14 9.178-13.195 10.328-15.037 12.759-30.44l-5.5.717z" fill="url(#paint35_linear)"/><path fill-rule="evenodd" clip-rule="evenodd" d="M21.377 61.32c1.534 14.94.738 20.346-5.524 34.251-.675.71-3.046.27-3.407-.716 2.08-7.787 3.244-12.324 3.452-15.785.482-8.21-3.144-8.37-3.379-17.14l8.858-.61z" fill="url(#paint36_linear)"/><path fill-rule="evenodd" clip-rule="evenodd" d="M21.925 50.426c.53 5 .27 9.79.008 15.287-3.514.893-8.46 1.257-12.086-1.216.528-5.406.04-13.023 1.216-15.444 1.94-3.98 8.924-4.518 10.862 1.373z" fill="#70C851"/><path style="mix-blend-mode:multiply" opacity=".5" fill-rule="evenodd" clip-rule="evenodd" d="M21.744 49.742c.927 4.822.166 10.968.188 15.972l-3.035-16.488 2.847.516z" fill="url(#paint37_linear)"/><path fill-rule="evenodd" clip-rule="evenodd" d="M16.223 44.775c-.03.551.242 1.3.406 1.663-.252.47-1.507 1.045-2.635.786-.055-1.018-.224-1.579-.821-2.337l1.195-.597 1.047-.15.808.635z" fill="#FFA698"/><path fill-rule="evenodd" clip-rule="evenodd" d="M16.223 44.775a2.77 2.77 0 00.106.81c-.154.45-1.86 1.352-2.503.477a3.464 3.464 0 00-.648-1.18l1.194-.597 1.048-.15.803.64z" fill="url(#paint38_linear)"/><path fill-rule="evenodd" clip-rule="evenodd" d="M16.28 40.03c.54 1.351 1.065 2.386 1.16 3.772.049.71-.158.916-.824 1.036-1.203.217-2.136.27-2.674-.305l-.989-1.458.71-2.56 1.327-.485h1.29z" fill="url(#paint39_linear)"/><path fill-rule="evenodd" clip-rule="evenodd" d="M16.28 40.03c.079.2.159.392.237.58a3.784 3.784 0 01-.835.56c-.32.676.039 1.64-.354 1.852-.17.092-.406 0-.583-.126-.662-.513-.54.054-.127.563.362.439.48.675.37 1.517-.432-.036-.785-.167-1.046-.443l-.989-1.458.71-2.56 1.327-.485h1.29z" fill="#FFA698"/><path fill-rule="evenodd" clip-rule="evenodd" d="M10.126 41.796c-.893-1.579.053-3.068 1.501-2.856.192-.96 1.11-1.205 1.893-1.039.28-.946 1.486-1.166 2.189-.74 1.374.83 1.81 2.63-.26 3.702-.305.768-.18 1.12-.301 1.911-.022.136-.338-.225-.65-.363-.212-.093-.485-.049-.576.11-.296.526.446.832.688 1.409.14.422.174.872.099 1.31-.095.435-.423.663-.843.386-2.022-1.338-3.056-2.622-3.74-3.83z" fill="url(#paint40_linear)"/><path fill-rule="evenodd" clip-rule="evenodd" d="M16.42 37.786c.729.918.663 2.226-.978 3.077-.305.768-.181 1.12-.301 1.911-.022.136-.338-.225-.65-.363-.213-.093-.486-.049-.576.11-.296.526.446.832.688 1.409.14.422.174.872.098 1.31-.094.435-.423.663-.843.386-.34-.227-.653-.451-.946-.676.461-.212.676-.655.47-1.432-.287-1.065-.443-1.959.746-1.796.637.086.181-.425.676-1.575.69-.382 1.52-.831 1.615-2.36z" fill="#22043D"/><path fill-rule="evenodd" clip-rule="evenodd" d="M22.76 48.352c3.221.54 6.863-1.505 9.52-4.46.999-1.114 1.126-1.44 1.431-2.51.325-1.139.496-1.521 1.154-2.101.698-.615.947-.37.492.288-.175.257-.383.319-.42 1.026 1.165-1.137 2.49-3.193 3.92-2.318-.12.096-.436.334-1.024 1.201-.587.868-1.394 2.37-1.462 2.444-.557.616-1.119 1.035-1.726 2.047-3.67 6.134-5.585 8.53-12.258 8.993l-.766-2.91 1.14-1.7z" fill="url(#paint41_linear)"/><path fill-rule="evenodd" clip-rule="evenodd" d="M22.76 48.352c.333.056.67.086 1.008.088.322.984.48 2.015.468 3.051 4.246-.822 7.142-3.46 10.406-7.526-3.67 6.135-5.585 8.529-12.258 8.993l-.766-2.91 1.142-1.696z" fill="url(#paint42_linear)"/><path fill-rule="evenodd" clip-rule="evenodd" d="M26.624 47.764c2.601-.962 5.083-2.911 6.418-4.894.231-.194 1.654.422 1.784 1.1-2.448 4.089-4.245 6.486-7.09 7.804-2.058.946-5.326 1.505-7.838 1.115-1.975-.307-3.063-1.216-2.806-2.998.086-.602.946-1.944 2.546-1.982 2.892-.07 3.704 1.07 6.986-.145z" fill="#70C851"/><path style="mix-blend-mode:multiply" opacity=".5" fill-rule="evenodd" clip-rule="evenodd" d="M34.826 43.97c-2.448 4.089-4.245 6.486-7.09 7.804-2.058.946-5.326 1.505-7.838 1.115-1.975-.307-3.063-1.216-2.806-2.998 5.872 3.386 12.32 1.237 17.734-5.922z" fill="url(#paint43_linear)"/><path d="M78.485 69.755h-14.18c-.247 0-.447.2-.447.446v.995c0 .246.2.446.446.446h14.181c.247 0 .446-.2.446-.446V70.2c0-.246-.2-.446-.446-.446zm0 4.855h-14.18c-.247 0-.447.2-.447.447v.995c0 .246.2.445.446.445h14.181c.247 0 .446-.2.446-.445v-.995c0-.246-.2-.446-.446-.446zm-7.199 3.494h-6.922c-.246 0-.446.2-.446.446v.995c0 .246.2.446.446.446h6.922c.246 0 .446-.2.446-.446v-.995c0-.246-.2-.446-.446-.446z" fill="#fff"/><path opacity=".3" fill-rule="evenodd" clip-rule="evenodd" d="M56.089 65.303a2.303 2.303 0 110 4.606 2.303 2.303 0 010-4.606z" fill="#fff"/><path d="M56.088 68.592a.987.987 0 100-1.973.987.987 0 000 1.973z" fill="#fff"/><path opacity=".3" d="M58.672 71.224h-5.825c-.208 0-.377.194-.377.434v.448c0 .24.169.434.377.434h5.825c.208 0 .377-.195.377-.434v-.448c0-.24-.169-.434-.377-.434zm2.065 1.974h-7.982c-.157 0-.285.194-.285.434v.448c0 .24.128.434.285.434h7.982c.158 0 .286-.195.286-.434v-.448c0-.24-.128-.434-.286-.434z" fill="#fff"/><path opacity=".2" d="M30.208 65.303h19.523a1.434 1.434 0 011.006.413 1.411 1.411 0 01.416.998v12.308c0 .375-.15.734-.417 1a1.43 1.43 0 01-1.006.413H30.208a1.43 1.43 0 01-1.007-.414 1.407 1.407 0 01-.417-.999V66.713c0-.374.151-.733.418-.997a1.43 1.43 0 011.006-.413z" fill="url(#paint44_linear)"/><path fill-rule="evenodd" clip-rule="evenodd" d="M35.55 67.276l6.35 8.28 3.924-3.288 4.672 6.85H30.101l5.45-11.842z" fill="#fff"/><path d="M42.272 69.908c.908 0 1.645-.59 1.645-1.316 0-.727-.737-1.316-1.645-1.316-.909 0-1.645.59-1.645 1.316 0 .727.736 1.316 1.645 1.316z" fill="#FFC770"/><defs><linearGradient id="paint0_linear" x1="10.903" y1="18.837" x2="11.314" y2="24.545" gradientUnits="userSpaceOnUse"><stop stop-color="#6D6AFE"/><stop offset="1" stop-color="#3FB0F7"/></linearGradient><linearGradient id="paint1_linear" x1="98.981" y1="10.307" x2="99.002" y2="15.703" gradientUnits="userSpaceOnUse"><stop stop-color="#FA5DB1"/><stop offset="1" stop-color="#FEBFBF"/></linearGradient><linearGradient id="paint2_linear" x1="115.237" y1="47.609" x2="117.198" y2="53.624" gradientUnits="userSpaceOnUse"><stop stop-color="#1C8EF4"/><stop offset="1" stop-color="#00CFDD"/></linearGradient><linearGradient id="paint3_linear" x1="57.987" y1="3.11" x2="58.919" y2="8.243" gradientUnits="userSpaceOnUse"><stop stop-color="#A77EF7"/><stop offset="1" stop-color="#5E65D6"/></linearGradient><linearGradient id="paint4_linear" x1="20.535" y1="34.144" x2="23.155" y2="44.777" gradientUnits="userSpaceOnUse"><stop stop-color="#FFB89E"/><stop offset="1" stop-color="#FFA799"/></linearGradient><linearGradient id="paint5_linear" x1="23.404" y1="45.591" x2="21.428" y2="43.52" gradientUnits="userSpaceOnUse"><stop stop-color="#FF8A78"/><stop offset="1" stop-color="#FFA799"/></linearGradient><linearGradient id="paint6_linear" x1="27806.2" y1="20392.2" x2="27931" y2="21348.1" gradientUnits="userSpaceOnUse"><stop stop-color="#A77EF7"/><stop offset="1" stop-color="#5E65D6"/></linearGradient><linearGradient id="paint7_linear" x1="59467.3" y1="34432.4" x2="57991.2" y2="38960.8" gradientUnits="userSpaceOnUse"><stop stop-color="#1C8EF4"/><stop offset="1" stop-color="#00CFDD"/></linearGradient><linearGradient id="paint8_linear" x1="79708.1" y1="31855.7" x2="79096.9" y2="34578.1" gradientUnits="userSpaceOnUse"><stop stop-color="#6D6AFE"/><stop offset="1" stop-color="#3FB0F7"/></linearGradient><linearGradient id="paint9_linear" x1="6313.66" y1="3643.85" x2="6306.4" y2="3651.52" gradientUnits="userSpaceOnUse"><stop stop-color="#FF8A78"/><stop offset="1" stop-color="#FFA799"/></linearGradient><linearGradient id="paint10_linear" x1="12721.2" y1="8080.59" x2="12600" y2="7963.86" gradientUnits="userSpaceOnUse"><stop stop-color="#FF8A78"/><stop offset="1" stop-color="#FFA799"/></linearGradient><linearGradient id="paint11_linear" x1="89.23" y1="96.159" x2="90.04" y2="97.984" gradientUnits="userSpaceOnUse"><stop stop-color="#3E4795"/><stop offset="1" stop-color="#273088"/></linearGradient><linearGradient id="paint12_linear" x1="7626.65" y1="2732.17" x2="7610.92" y2="2750.26" gradientUnits="userSpaceOnUse"><stop stop-color="#3E4795"/><stop offset="1" stop-color="#273088"/></linearGradient><linearGradient id="paint13_linear" x1="37316.3" y1="53535" x2="39411.2" y2="55947.6" gradientUnits="userSpaceOnUse"><stop stop-color="#3E4795"/><stop offset="1" stop-color="#273088"/></linearGradient><linearGradient id="paint14_linear" x1="23511.5" y1="41265.2" x2="24725.3" y2="42663.1" gradientUnits="userSpaceOnUse"><stop stop-color="#3E4795"/><stop offset="1" stop-color="#273088"/></linearGradient><linearGradient id="paint15_linear" x1="20504.4" y1="7770.48" x2="20516.3" y2="7704.8" gradientUnits="userSpaceOnUse"><stop stop-color="#3E4795"/><stop offset="1" stop-color="#273088"/></linearGradient><linearGradient id="paint16_linear" x1="6855.32" y1="3935.44" x2="6885.08" y2="3941.55" gradientUnits="userSpaceOnUse"><stop stop-color="#3E4795"/><stop offset="1" stop-color="#273088"/></linearGradient><linearGradient id="paint17_linear" x1="60632.8" y1="26136.7" x2="61723.9" y2="27393.4" gradientUnits="userSpaceOnUse"><stop stop-color="#3E4795"/><stop offset="1" stop-color="#273088"/></linearGradient><linearGradient id="paint18_linear" x1="60369.8" y1="19740.7" x2="61413.1" y2="20942.1" gradientUnits="userSpaceOnUse"><stop stop-color="#3E4795"/><stop offset="1" stop-color="#273088"/></linearGradient><linearGradient id="paint19_linear" x1="5497.67" y1="4889.76" x2="5508.15" y2="4897.21" gradientUnits="userSpaceOnUse"><stop stop-color="#FF8A78"/><stop offset="1" stop-color="#FFA799"/></linearGradient><linearGradient id="paint20_linear" x1="10067.2" y1="9304.51" x2="10039.5" y2="9471.02" gradientUnits="userSpaceOnUse"><stop stop-color="#FFB89E"/><stop offset="1" stop-color="#FFA799"/></linearGradient><linearGradient id="paint21_linear" x1="91.126" y1="65.152" x2="89.693" y2="52.558" gradientUnits="userSpaceOnUse"><stop stop-color="#965CF2"/><stop offset="1" stop-color="#FF8ADC"/></linearGradient><linearGradient id="paint22_linear" x1="15903.2" y1="9148.02" x2="15881.4" y2="8845.83" gradientUnits="userSpaceOnUse"><stop stop-color="#965CF2"/><stop offset="1" stop-color="#FF8ADC"/></linearGradient><linearGradient id="paint23_linear" x1="50688.6" y1="15386" x2="50629" y2="14559.7" gradientUnits="userSpaceOnUse"><stop stop-color="#965CF2"/><stop offset="1" stop-color="#FF8ADC"/></linearGradient><linearGradient id="paint24_linear" x1="97.475" y1="44.255" x2="98.475" y2="50.56" gradientUnits="userSpaceOnUse"><stop stop-color="#5A2D68"/><stop offset="1" stop-color="#22043D"/></linearGradient><linearGradient id="paint25_linear" x1="26802.9" y1="17316.7" x2="26823.1" y2="16545" gradientUnits="userSpaceOnUse"><stop stop-color="#70C851"/><stop offset="1" stop-color="#70C851"/></linearGradient><linearGradient id="paint26_linear" x1="2711.49" y1="3674.02" x2="2695.16" y2="3666.31" gradientUnits="userSpaceOnUse"><stop stop-color="#FF8A78"/><stop offset="1" stop-color="#FFA799"/></linearGradient><linearGradient id="paint27_linear" x1="21728.2" y1="16299" x2="21956.6" y2="15645.7" gradientUnits="userSpaceOnUse"><stop stop-color="#965CF2"/><stop offset="1" stop-color="#FF8ADC"/></linearGradient><linearGradient id="paint28_linear" x1="11074.6" y1="17108.6" x2="11514.9" y2="16492.4" gradientUnits="userSpaceOnUse"><stop stop-color="#965CF2"/><stop offset="1" stop-color="#FF8ADC"/></linearGradient><linearGradient id="paint29_linear" x1="20967.4" y1="15902.8" x2="21195.8" y2="15249.5" gradientUnits="userSpaceOnUse"><stop stop-color="#965CF2"/><stop offset="1" stop-color="#FF8ADC"/></linearGradient><linearGradient id="paint30_linear" x1="16.468" y1="96.475" x2="15.987" y2="97.858" gradientUnits="userSpaceOnUse"><stop stop-color="#40457F"/><stop offset="1" stop-color="#1E2353"/></linearGradient><linearGradient id="paint31_linear" x1="14.326" y1="96.496" x2="13.464" y2="94.804" gradientUnits="userSpaceOnUse"><stop stop-color="#002041"/><stop offset="1" stop-color="#004975"/></linearGradient><linearGradient id="paint32_linear" x1="7638.33" y1="10964.6" x2="7587.14" y2="10983" gradientUnits="userSpaceOnUse"><stop stop-color="#40457F"/><stop offset="1" stop-color="#1E2353"/></linearGradient><linearGradient id="paint33_linear" x1="5589.2" y1="4660.64" x2="5632.32" y2="4689.75" gradientUnits="userSpaceOnUse"><stop stop-color="#40457F"/><stop offset="1" stop-color="#1E2353"/></linearGradient><linearGradient id="paint34_linear" x1="30210.6" y1="51916.9" x2="32197.4" y2="53258.8" gradientUnits="userSpaceOnUse"><stop stop-color="#40457F"/><stop offset="1" stop-color="#1E2353"/></linearGradient><linearGradient id="paint35_linear" x1="23772.1" y1="50070.6" x2="25475.7" y2="51221.4" gradientUnits="userSpaceOnUse"><stop stop-color="#40457F"/><stop offset="1" stop-color="#1E2353"/></linearGradient><linearGradient id="paint36_linear" x1="18289" y1="56162.1" x2="20860.3" y2="57899" gradientUnits="userSpaceOnUse"><stop stop-color="#40457F"/><stop offset="1" stop-color="#1E2353"/></linearGradient><linearGradient id="paint37_linear" x1="6501.1" y1="24680.8" x2="6795.89" y2="26246.2" gradientUnits="userSpaceOnUse"><stop stop-color="#A77EF7"/><stop offset="1" stop-color="#5E65D6"/></linearGradient><linearGradient id="paint38_linear" x1="6052.65" y1="3364.17" x2="6053.2" y2="3384.51" gradientUnits="userSpaceOnUse"><stop stop-color="#FF8A78"/><stop offset="1" stop-color="#FFA799"/></linearGradient><linearGradient id="paint39_linear" x1="8634.6" y1="7095.07" x2="8643.68" y2="7201.78" gradientUnits="userSpaceOnUse"><stop stop-color="#FFB89E"/><stop offset="1" stop-color="#FFA799"/></linearGradient><linearGradient id="paint40_linear" x1="13505.4" y1="12422.4" x2="13618.4" y2="12505.3" gradientUnits="userSpaceOnUse"><stop stop-color="#5A2D68"/><stop offset="1" stop-color="#22043D"/></linearGradient><linearGradient id="paint41_linear" x1="35155.6" y1="20702.1" x2="34968.6" y2="22242" gradientUnits="userSpaceOnUse"><stop stop-color="#FFB89E"/><stop offset="1" stop-color="#FFA799"/></linearGradient><linearGradient id="paint42_linear" x1="26399.7" y1="13448.1" x2="26335.3" y2="13215.1" gradientUnits="userSpaceOnUse"><stop stop-color="#FF8A78"/><stop offset="1" stop-color="#FFA799"/></linearGradient><linearGradient id="paint43_linear" x1="35474.2" y1="13408.3" x2="35376.2" y2="14166" gradientUnits="userSpaceOnUse"><stop stop-color="#A77EF7"/><stop offset="1" stop-color="#5E65D6"/></linearGradient><linearGradient id="paint44_linear" x1="47413.9" y1="25958.9" x2="49525.5" y2="27131.8" gradientUnits="userSpaceOnUse"><stop stop-color="#fff"/><stop offset=".56" stop-color="#FF8ADC"/><stop offset="1" stop-color="#FFBBA8"/></linearGradient></defs></svg>