<svg width="125" height="107" fill="none" xmlns="http://www.w3.org/2000/svg"><path style="mix-blend-mode:multiply" opacity=".35" d="M80.231 103.633c16.78 0 30.382-.736 30.382-1.644 0-.908-13.602-1.644-30.382-1.644s-30.381.736-30.381 1.644c0 .908 13.602 1.644 30.381 1.644z" fill="#0738A9"/><path d="M97.152 16.352H58.988a4.898 4.898 0 00-4.896 4.9v76.385a4.897 4.897 0 004.896 4.899h38.164a4.897 4.897 0 004.896-4.9V21.253c0-2.706-2.192-4.9-4.896-4.9z" fill="#303A7D"/><path d="M95.554 18.487H60.587a4.488 4.488 0 00-4.486 4.49v72.935c0 2.48 2.008 4.49 4.486 4.49h34.967a4.488 4.488 0 004.487-4.49V22.977a4.49 4.49 0 00-4.487-4.49z" fill="url(#paint0_linear)"/><path fill-rule="evenodd" clip-rule="evenodd" d="M78.07 32.86a5.143 5.143 0 014.756 3.178 5.153 5.153 0 01-3.75 7.024 5.144 5.144 0 01-5.284-2.19 5.153 5.153 0 01.64-6.503 5.145 5.145 0 013.638-1.51zm0 1.334a3.81 3.81 0 00-3.522 2.357 3.818 3.818 0 002.78 5.202 3.81 3.81 0 003.914-1.623 3.818 3.818 0 00-3.172-5.936zm-4.353 10.518h8.712a.41.41 0 01.376.436v.754a.412.412 0 01-.376.436h-8.712a.41.41 0 01-.374-.436v-.754a.41.41 0 01.374-.436z" fill="#fff"/><path opacity=".5" d="M86.127 48.063H70.015a.436.436 0 00-.436.436v.754c0 .24.195.436.436.436h16.112c.24 0 .436-.196.436-.436v-.754a.436.436 0 00-.436-.436z" fill="#fff"/><path d="M121.421 9.586a6.674 6.674 0 10-12.988-3.087 6.675 6.675 0 1012.988 3.087z" fill="url(#paint1_linear)"/><path opacity=".9" fill-rule="evenodd" clip-rule="evenodd" d="M7.84 62.532a6.096 6.096 0 015.635 3.768 6.107 6.107 0 01-4.446 8.322 6.095 6.095 0 01-6.26-2.596 6.107 6.107 0 012.736-9.03 6.094 6.094 0 012.335-.464z" fill="url(#paint2_linear)"/><path opacity=".5" fill-rule="evenodd" clip-rule="evenodd" d="M12.574 12.95a3.695 3.695 0 013.415 2.285 3.702 3.702 0 01-2.694 5.044A3.694 3.694 0 019.5 18.706a3.702 3.702 0 013.074-5.755z" fill="url(#paint3_linear)"/><path fill-rule="evenodd" clip-rule="evenodd" d="M101.942 37.204c.159.953.44 1.889-.13 3.158l5.409.035c-1.827-1.708-1.944-2.73-1.924-4.335l-2.021.406-1.334.736z" fill="url(#paint4_linear)"/><path fill-rule="evenodd" clip-rule="evenodd" d="M100.402 30.761c-.838 1.094-1.41 3.587-1.13 5.491.094.641.182 1.444.623 1.68.482.262 1.219.146 2.336.02 1.622-.185 1.436-.572 2.284-2.07l1.396-3.465-2.901-2.873-2.608 1.217z" fill="url(#paint5_linear)"/><path fill-rule="evenodd" clip-rule="evenodd" d="M100.401 30.761a3.65 3.65 0 00-.364.594c.452.273.737.343 1.635.255.06.895.504 3.134 1.578 2.873.19-.047.41-.306.615-.439.25-.162.592-.078.443.402-.403 1.306-.758 1.55-.32 2.448.131-.262.293-.595.522-1.011l1.397-3.465-2.901-2.873-2.605 1.216z" fill="#FFA698"/><path fill-rule="evenodd" clip-rule="evenodd" d="M101.96 31.252c-2.568.315-2.938-1.328-2.341-2.546.744-1.524 3.001-2.55 4.498-.141 1.101-.544 1.527-.434 2.015.8 2.003-.46 2.719 1.334 2.243 3.025-.433 1.543-1.587 2.532-2.516 3.733a7.42 7.42 0 00-.745 1.152c-.621-.193-.761-.443-.86-.892-.071-.312.281-1.371.351-2.062.052-.514-.291-.914-.836-.572-.162.103-.261.355-.513.584-1.214-.73-1.111-1.783-1.296-3.08z" fill="url(#paint6_linear)"/><path fill-rule="evenodd" clip-rule="evenodd" d="M101.96 31.252c-2.568.315-2.938-1.328-2.341-2.546.009-.021.02-.04.03-.06.093 1.052.712 1.672 1.767 1.636 1.186-.04 1.534.052 1.741 1.54.109.784.18 1.283.668 1.156 1.058-.275 1.649.191 1.657 1.473 0 .635.244 1.105.699 1.272-.109.13-.216.261-.322.4a2.585 2.585 0 00-.514 1.286c-1.835-.572-.871-1.8-.74-3.088.052-.515-.291-.914-.836-.572-.162.103-.261.355-.513.584-1.214-.73-1.111-1.783-1.296-3.081z" fill="#22043D"/><path fill-rule="evenodd" clip-rule="evenodd" d="M111.187 40.811c.982.904 1.981 1.763 2.678 2.664 5.858 7.586 1.51 14.588-11.964 11.891 1.506-9.435 3.242-7.2 9.286-14.555z" fill="url(#paint7_linear)"/><path fill-rule="evenodd" clip-rule="evenodd" d="M116.379 49.09c.479 4.946-4.491 8.276-14.484 6.277 1.153-7.23 2.442-7.608 5.701-10.698l3.864 1.732c.321 2.32.652 4.545.881 6.88 2.295-.968 3.486-1.98 4.038-4.19z" fill="#053297" opacity=".35"/><path fill-rule="evenodd" clip-rule="evenodd" d="M120.498 106.591l-6.213.099c-.309-.345-.391-1.529-.066-2.037.458-.715.734-1.478.766-2.189l2.337.107 1.007-.474c.453.594 1.412 1.689 2.088 2.654.331.474.227 1.334.081 1.84z" fill="#0F2F64"/><path fill-rule="evenodd" clip-rule="evenodd" d="M114.751 103.897c.127-.47.206-.951.234-1.437l2.337.107 1.007-.474c.179.234.435.545.722.896-.912.978-3.705 1.523-4.3.908z" fill="#1E2353" opacity=".3"/><path fill-rule="evenodd" clip-rule="evenodd" d="M110.434 61.738c.57 1.728 1.321 3.034 2.106 6.566.855 3.84 1.098 7.46 1.739 11.193a230.29 230.29 0 005.012 22.649c-1.263 1.052-3.739 1.054-4.642.734-2.701-6.148-4.362-12.145-6.74-18.38-3.262-8.54-6.812-17.093-9.632-25.203l12.157 2.441z" fill="#0738A9"/><path style="mix-blend-mode:multiply" opacity=".5" fill-rule="evenodd" clip-rule="evenodd" d="M105.266 61.62c1.276 3.867 8.449 31.757 9.386 41.266-2.701-6.148-4.362-12.145-6.74-18.379-3.262-8.54-6.812-17.094-9.632-25.203l6.986 2.316z" fill="url(#paint8_linear)"/><path fill-rule="evenodd" clip-rule="evenodd" d="M102.553 101.593c.192.954.773 1.68.864 2.38.158 1.205-.536 2.415-1.957 2.428l-9.317.083c.493-3.185 5.48-1.42 7.147-4.951l2.169.122 1.094-.062z" fill="#0F2F64"/><path fill-rule="evenodd" clip-rule="evenodd" d="M102.554 101.593c.063.298.158.589.281.867-.873.606-2.557 1.016-4.507.346.404-.353.73-.786.958-1.273l2.169.122 1.099-.062z" fill="#1E2353" opacity=".3"/><path fill-rule="evenodd" clip-rule="evenodd" d="M96.17 60.943c-.381 2.285-.505 4.463-.473 7.305.12 10.678 1.835 22.77 2.978 33.438 1.521.584 3.193.552 4.459.031.184-6.177.291-12.744.924-18.821 1.052-10.099 5.194-17.172 2.772-23.114l-7.209-.244-3.451 1.405z" fill="#0738AB"/><path fill-rule="evenodd" clip-rule="evenodd" d="M112.865 43.028c2.168 3.586-1.187 3.073-1.508 5.622-.621 5.815-.914 9.794.152 15.741-6.586 2.389-11.972 1.5-15.58.04.72-4.571-.1-15.718 1.067-19.952.68-2.468-2.349-3.06-.49-3.787 3.405-1.324 8.222-2.413 11.755-1.358 1.128.337 2.052.686 2.954 1.53.548.516 1.097 1.254 1.65 2.164z" fill="url(#paint9_linear)"/><path fill-rule="evenodd" clip-rule="evenodd" d="M102.395 65.845a19.92 19.92 0 01-6.467-1.414c.72-4.571-.1-15.718 1.067-19.952.68-2.468-2.158-2.664-.3-3.386 1.057-.411 3.444.712 3.997 1.96 3.66 8.259 3.373 15.275 1.703 22.792z" fill="#17ACC8" opacity=".35"/><path fill-rule="evenodd" clip-rule="evenodd" d="M88.084 68.591l3.378-7.2a.637.637 0 01.846-.305l11.281 5.332a.637.637 0 01.306.845l-3.379 7.2a.638.638 0 01-.846.305l-11.28-5.33a.638.638 0 01-.306-.847z" fill="#9FD2FB"/><path fill-rule="evenodd" clip-rule="evenodd" d="M96.67 63.122l3.256 1.538c-.802 1.306-1.525 2.51-2.111 3.942.008 1.044-.3 2.154-2.25 4.2l-2.055-.972 1.328-1.771 1.832-6.937z" fill="#9FD2FB" opacity=".5"/><path fill-rule="evenodd" clip-rule="evenodd" d="M92.946 71.835c.894.45 1.368.683 1.596.616.578-.168 1.603-1.74 2.063-2.611.408-.784-.237-1.698.094-2.235-.472-.783-1.452-1.947-2.265-1.959-.19 1.941-2.6 3.95-2.975 5.028-.226.648 1.018.93 1.487 1.161z" fill="url(#paint10_linear)"/><path fill-rule="evenodd" clip-rule="evenodd" d="M93.651 72.183c.457.216.735.314.894.261.578-.167 1.603-1.74 2.063-2.611.407-.784-.237-1.698.094-2.235-.472-.783 0 .056-.807.043.084 1.81-1.07 2.907-2.244 4.542z" fill="url(#paint11_linear)"/><path fill-rule="evenodd" clip-rule="evenodd" d="M101.466 49.302c.281 2.67.375 5.369.033 7.41-.591 3.538-1.856 6.878-4.544 11.289-1.65.406-3.08-.7-2.909-1.917 1.072-2.22 2.281-8.368 2.29-9.887.021-3.045-.493-5.867-1.447-10.258-.749-3.41.13-4.803 1.745-5.301 4.325-1.33 4.524 5.723 4.832 8.664z" fill="url(#paint12_linear)"/><path style="mix-blend-mode:multiply" opacity=".5" fill-rule="evenodd" clip-rule="evenodd" d="M54.092 25.743h14.087a2.117 2.117 0 012.114 2.114v27.311a2.119 2.119 0 01-2.112 2.112h-14.09V25.743z" fill="url(#paint13_linear)"/><path d="M65.523 25.743H39.047a1.93 1.93 0 00-1.93 1.932v24.977a1.93 1.93 0 001.93 1.931h26.476a1.93 1.93 0 001.93-1.931V27.675a1.93 1.93 0 00-1.93-1.932z" fill="#fff"/><path opacity=".3" fill-rule="evenodd" clip-rule="evenodd" d="M41.254 27.676a2.688 2.688 0 012.638 3.217 2.692 2.692 0 01-2.114 2.114 2.687 2.687 0 01-3.213-2.641 2.692 2.692 0 012.689-2.69z" fill="#FEC82E"/><path fill-rule="evenodd" clip-rule="evenodd" d="M41.254 28.918a1.447 1.447 0 011.42 1.732 1.45 1.45 0 11-1.42-1.732z" fill="#FEC82E"/><path d="M53.286 28.313h-7.724a.5.5 0 00-.5.5v.517a.5.5 0 00.5.5h7.724a.5.5 0 00.5-.5v-.517a.5.5 0 00-.5-.5zM59.54 30.9H45.563a.5.5 0 00-.5.501v.517a.5.5 0 00.5.5h13.979a.5.5 0 00.5-.5v-.517a.5.5 0 00-.5-.5z" fill="#1B53D6"/><path opacity=".7" d="M64.161 34.527H40.408c-.956 0-1.731.776-1.731 1.733v15.107c0 .957.775 1.733 1.731 1.733h23.753c.956 0 1.732-.776 1.732-1.733V36.26c0-.957-.776-1.733-1.732-1.733z" fill="#169AFC"/><path fill-rule="evenodd" clip-rule="evenodd" d="M46.458 37.024l7.79 10.419 4.817-4.139 5.733 8.623H39.77l6.688-14.903z" fill="#D2FFC2"/><path fill-rule="evenodd" clip-rule="evenodd" d="M55.145 37.024a1.723 1.723 0 011.69 2.062 1.726 1.726 0 01-2.35 1.257 1.725 1.725 0 01.66-3.319z" fill="#FFC770"/><path style="mix-blend-mode:multiply" opacity=".5" fill-rule="evenodd" clip-rule="evenodd" d="M92.886 29.057l-16.529-.064a1.114 1.114 0 01-1.062-.963l-.348-2.859-1.065-8.75 16.997.076 6.363-.156 1.33.215-2.43 10.518c-.272 1.586-.614 1.994-3.256 1.983z" fill="url(#paint14_linear)"/><path fill-rule="evenodd" clip-rule="evenodd" d="M81.375 12.124h15.677c.538 0 .878.44.758.978l-2.932 13.08a1.299 1.299 0 01-1.196.977H78.004c-.536 0-.878-.44-.757-.977L80.18 13.1a1.297 1.297 0 011.196-.977z" fill="#1B53D6"/><path d="M93.827 8.675H78.802a1.67 1.67 0 00-1.67 1.67V25.11c0 .922.748 1.67 1.67 1.67h15.025a1.67 1.67 0 001.669-1.67V10.346a1.67 1.67 0 00-1.67-1.67z" fill="#F2F4FF"/><path d="M94.02 10.27H78.61a.42.42 0 00-.42.42v.942c0 .232.189.42.42.42h15.41a.42.42 0 00.42-.42v-.942a.42.42 0 00-.42-.42zm.136 3.818H78.474a.283.283 0 00-.284.283v.631c0 .156.127.283.284.283h15.682a.283.283 0 00.283-.283v-.63a.283.283 0 00-.283-.284zm0 3.082H78.474a.283.283 0 00-.284.283v.631c0 .157.127.283.284.283h15.682a.283.283 0 00.283-.283v-.63a.283.283 0 00-.283-.284zm0 3.082H78.474a.283.283 0 00-.284.283v.63c0 .157.127.284.284.284h15.682a.283.283 0 00.283-.283v-.631a.283.283 0 00-.283-.284z" fill="#DCE8F8"/><path fill-rule="evenodd" clip-rule="evenodd" d="M87.098 13.679h5.011a1.024 1.024 0 01.985.876l1.457 11.727a.762.762 0 01-.768.876h-15.88a1.024 1.024 0 01-.985-.876l-.322-2.604-1.134-9.127-.2-1.613a1.188 1.188 0 011.198-1.37h6.621c.753 0 1.128.275 1.619.904.832 1.082 1.002 1.207 2.398 1.207z" fill="#70C851"/><path style="mix-blend-mode:multiply" opacity=".5" fill-rule="evenodd" clip-rule="evenodd" d="M84.647 65.688v10.137c0 2.449-1.882 4.457-4.176 4.457h-26.38V61.231h26.38c2.3 0 4.176 2.006 4.176 4.457z" fill="url(#paint15_linear)"/><path fill-rule="evenodd" clip-rule="evenodd" d="M82.191 65.154v8.92A3.938 3.938 0 0178.276 78h-29.8a3.932 3.932 0 01-3.916-3.925v-8.92a3.936 3.936 0 013.915-3.918h29.796a3.93 3.93 0 013.92 3.918z" fill="url(#paint16_linear)"/><path fill-rule="evenodd" clip-rule="evenodd" d="M57.494 66.678h22.663a.654.654 0 01.627.68v1.52a.66.66 0 01-.627.681H57.494a.658.658 0 01-.63-.68v-1.52a.652.652 0 01.63-.68z" fill="#fff"/><path d="M76.177 70.981H57.236a.37.37 0 00-.37.37v.829c0 .205.165.37.37.37h18.941a.37.37 0 00.37-.37v-.828a.37.37 0 00-.37-.371z" fill="#fff"/><path opacity=".2" fill-rule="evenodd" clip-rule="evenodd" d="M50.898 65.542a4.068 4.068 0 013.761 2.513 4.075 4.075 0 01-2.965 5.555 4.068 4.068 0 01-4.865-3.995 4.074 4.074 0 012.511-3.763 4.067 4.067 0 011.558-.31z" fill="#fff"/><path fill-rule="evenodd" clip-rule="evenodd" d="M50.898 67.019a2.593 2.593 0 012.545 3.102 2.596 2.596 0 01-3.537 1.893 2.595 2.595 0 01-.842-4.234 2.594 2.594 0 011.834-.761zm0 1.028a1.565 1.565 0 00-1.536 1.873 1.567 1.567 0 002.135 1.142 1.566 1.566 0 00-.6-3.015zm-6.643 5.685a6.047 6.047 0 015.59 3.737 6.057 6.057 0 01-4.41 8.255 6.045 6.045 0 01-6.21-2.575 6.057 6.057 0 015.03-9.417z" fill="#fff"/><path fill-rule="evenodd" clip-rule="evenodd" d="M44.254 77.61c.51 0 1.013.122 1.465.356v-.914a.208.208 0 00-.204-.205h-2.52a.207.207 0 00-.205.205v.914a3.174 3.174 0 011.464-.355zm2.74 1.547a3.197 3.197 0 01-1.126 4.405 3.19 3.19 0 01-4.8-2.802 3.196 3.196 0 01.456-1.603v-2.11A1.482 1.482 0 0143 75.573h2.52a1.477 1.477 0 011.474 1.476v2.109z" fill="url(#paint17_linear)"/><path fill-rule="evenodd" clip-rule="evenodd" d="M44.254 80.103a.642.642 0 01.4 1.151v1.188a.4.4 0 01-.4.4.4.4 0 01-.398-.4v-1.188a.644.644 0 01.398-1.15z" fill="#21389B"/><path style="mix-blend-mode:multiply" opacity=".5" fill-rule="evenodd" clip-rule="evenodd" d="M63.701 86.36a2.856 2.856 0 012.773-2.196h6.003a2.854 2.854 0 012.774 2.196h2.74a4.228 4.228 0 014.224 4.225v11.951H58.987c-.78 0-1.549-.187-2.24-.547V90.585a4.234 4.234 0 014.222-4.225H63.7z" fill="url(#paint18_linear)"/><path d="M77.988 88.075H60.97a2.509 2.509 0 00-2.508 2.51v12.011a2.51 2.51 0 002.508 2.51h17.02a2.51 2.51 0 002.507-2.51V90.585a2.509 2.509 0 00-2.508-2.51z" fill="#1B53D6"/><path fill-rule="evenodd" clip-rule="evenodd" d="M60.969 89.173h17.023a2.509 2.509 0 012.508 2.498v4.26l-6.538 3.595h-2.456v.482a.624.624 0 01-.601.639h-2.663a.624.624 0 01-.602-.639v-.482H65l-6.54-3.595v-4.26a2.512 2.512 0 012.509-2.498z" fill="#E23B93" opacity=".5"/><path fill-rule="evenodd" clip-rule="evenodd" d="M66.475 85.88h6.003a1.138 1.138 0 011.135 1.135v1.936c-4.203 2.32-4.078 2.32-8.28 0v-1.938a1.139 1.139 0 011.135-1.135l.007.002zm.892 1.097a.85.85 0 00-.873.821v1.397c3.213 1.67 2.756 1.67 5.97 0v-1.398a.85.85 0 00-.873-.822l-4.224.002z" fill="#FEC82E"/><path fill-rule="evenodd" clip-rule="evenodd" d="M73.619 87.452v1.5c-4.204 2.32-4.078 2.32-8.28 0v-1.5h1.237a.772.772 0 00-.082.346v1.397c3.213 1.67 2.756 1.67 5.969 0v-1.398a.772.772 0 00-.081-.346l1.237.001z" fill="#E23B93" opacity=".5"/><path fill-rule="evenodd" clip-rule="evenodd" d="M60.969 88.075h17.023a2.514 2.514 0 012.508 2.51v4.278l-6.538 3.61H65l-6.54-3.61v-4.278a2.519 2.519 0 012.509-2.51z" fill="url(#paint19_linear)"/><path d="M70.587 97.06h-2.029a.46.46 0 00-.46.46v1.868c0 .253.206.46.46.46h2.03a.46.46 0 00.459-.46V97.52a.46.46 0 00-.46-.46z" fill="url(#paint20_linear)"/><path fill-rule="evenodd" clip-rule="evenodd" d="M68.642 97.175h1.863a.423.423 0 01.42.422v1.713c-.425-1.358-.997-1.665-2.283-2.135z" fill="#FFD85E"/><path fill-rule="evenodd" clip-rule="evenodd" d="M46.068 39.52c.089-1.207.46-1.283 2.028-2.292.328-.21.64-.493 1.36-1.323.5.415.13.858-.217 1.469a4.25 4.25 0 00-.414 1.02c1.414-.086 1.891-.352 2.219-.722 1.65-1.843 1.95-2.184 4.122-2.177-1.016 1.32-1.778 2.169-2.31 3.554-.326.852-.26.784-.846 1.053-.798.364-1.474.745-2.219 1.112-1.672.818-1.628 1.235-2.713 2.77l-2.068-1.182c.73-1.55.93-1.567 1.058-3.283z" fill="url(#paint21_linear)"/><path fill-rule="evenodd" clip-rule="evenodd" d="M46.996 40.772c.796-1.884 1.468-2.005 3.825-2.684l1.305.784-1.11-.42c-1.624.776-3.191.682-4.02 2.32z" fill="#FF8978"/><path fill-rule="evenodd" clip-rule="evenodd" d="M29.791 38.6c4.724 1.529 6.187 8.264 8.683 8.158 2.197-.096 4.188-1.925 7.025-6.013.722-.03 2.063.89 2.644 2.038-2.005 3.51-4.874 9.916-9.396 10.067-2.349.079-5.979-1.794-8.157-4.629-3.703-4.824-2.592-4.744-.799-9.62z" fill="url(#paint22_linear)"/><path fill-rule="evenodd" clip-rule="evenodd" d="M30.598 43.23c2.97 5.4 5.48 7.67 7.938 8.126 1.284.24 3.719-.69 6.852-3.732-1.712 2.688-3.865 5.134-6.641 5.224-2.349.078-5.98-1.794-8.157-4.63l.008-4.988z" fill="#6266D7" opacity=".35"/><path fill-rule="evenodd" clip-rule="evenodd" d="M10.443 105.272c1.092.959 1.462 1.357 2.87 1.413 1.152.047 1.545-.252 2.204-.784.733-.588.963-.959.959-1.492-.01-1.019-.522-1.946-.577-3.222l-2.313.106-.998-.469c-.447.588-1.396 1.67-2.064 2.625-.328.473-.225 1.324-.081 1.823z" fill="#0F2F64"/><path style="mix-blend-mode:multiply" opacity=".5" fill-rule="evenodd" clip-rule="evenodd" d="M16.137 102.606a6.97 6.97 0 01-.23-1.418l-2.313.106-.998-.469c-.177.231-.43.54-.714.886.896.963 3.66 1.504 4.255.895z" fill="url(#paint23_linear)"/><path fill-rule="evenodd" clip-rule="evenodd" d="M28.203 100.333c-.189.943-.763 1.662-.853 2.351-.157 1.192.53 2.391 1.94 2.404l9.223.081c-.488-3.153-5.419-1.404-7.075-4.9l-2.146.12-1.089-.056z" fill="#0F2F64"/><path style="mix-blend-mode:multiply" opacity=".5" fill-rule="evenodd" clip-rule="evenodd" d="M28.204 100.333a4.38 4.38 0 01-.278.858c.864.599 2.531 1.006 4.461.342a3.794 3.794 0 01-.948-1.26l-2.147.12-1.088-.06z" fill="url(#paint24_linear)"/><path fill-rule="evenodd" clip-rule="evenodd" d="M34.522 60.093c.377 2.261.5 4.416.469 7.229-.118 10.568-1.817 22.537-2.947 33.096-1.506.577-3.16.547-4.415.03-.18-6.113-.246-12.414-.565-18.455-.401-7.608-1.36-13.56-3.096-23.056l7.135-.242 3.42 1.398z" fill="#0738A9"/><path fill-rule="evenodd" clip-rule="evenodd" d="M29.989 60.093c.373 2.261.373 8.769.347 11.585-.106 9.424-1.548 19.444-2.707 28.77-.181-6.113-.246-12.413-.565-18.454-.352-6.66-1.13-12.056-2.479-19.67l5.404-2.231z" fill="#1E2353" opacity=".3"/><path fill-rule="evenodd" clip-rule="evenodd" d="M20.405 60.878c-.565 1.711-1.305 3.004-2.088 6.5-.845 3.8-1.085 7.383-1.72 11.077a228.14 228.14 0 01-4.958 22.417c1.25 1.045 3.7 1.045 4.594.726 2.673-6.084 4.317-12.02 6.671-18.19 3.223-8.452 6.742-16.918 9.526-24.95l-12.025 2.42z" fill="#0738AB"/><path fill-rule="evenodd" clip-rule="evenodd" d="M19.868 46.847c-.043 4.589.234 10.87-.03 15.357 4.989 1.07 10.339 1.462 15.16-.182-.06-2.977-.757-7.417-1.466-11.528-.487-2.817.047-5.484-.522-7.977-.504-2.2-1.728-3.549-3.493-4.062a12.83 12.83 0 00-4.07-.465c-3.094.124-6.6.981-8.813 3.673-2.795 3.09.531 7.757 3.234 5.184z" fill="url(#paint25_linear)"/><path fill-rule="evenodd" clip-rule="evenodd" d="M23.344 35.84a19.12 19.12 0 01-.272 2.612c.41 1.436 1.752 2.382 3.085 2.201 1.15-.155 1.45-1.709 1.057-2.67a13.335 13.335 0 01-.091-1.33l-2.902-.848-.877.035z" fill="#FFA698"/><path fill-rule="evenodd" clip-rule="evenodd" d="M23.344 35.84c-.015.276-.067 1.065-.085 1.316.839 1.763 3.197 2.136 4.005 1.273a23.188 23.188 0 01-.141-1.772l-2.902-.847-.877.03z" fill="url(#paint26_linear)"/><path fill-rule="evenodd" clip-rule="evenodd" d="M22.89 34.714c-.745.141-.936-.11-1.108-.608-.172-.498-.163-.372-.48-.764a2.09 2.09 0 01-.328-.567c-.24-.632-.102-1.014-.112-1.502-.012-.603-.273-.831-.381-1.222-.522-1.892 1.105-3.541 2.877-2.672.641-1.153 1.659-1.175 2.585-.642 1.082-.653 2.12-.583 2.854.261 1.423 1.632.09 3.265-.888 3.696l-3.114 2.22-1.905 1.8z" fill="url(#paint27_linear)"/><path fill-rule="evenodd" clip-rule="evenodd" d="M22.89 34.714c-.746.141-.936-.11-1.109-.608-.172-.498-.163-.372-.48-.764a2.089 2.089 0 01-.327-.567c-.24-.632-.102-1.015-.113-1.502v-.02c.462.795 1.446.949 1.539-.169.488-.392.802-.864.87-1.425.086-.709.392-1.1 1.175-.876 1.837.522 3.34 1.482 4.959-.05-.117.929-.876 1.68-1.495 1.96l-3.113 2.22-1.907 1.801z" fill="#22043D"/><path fill-rule="evenodd" clip-rule="evenodd" d="M28.274 30.469c.13 1.929.44 3.904-.307 5.746-.271.666-.705 1.08-1.743.856-.72-.154-1.471-.483-2.138-.754-1.013-.412-.865-.818-1.036-1.176-.09-.173-.2-.335-.33-.48-.4-.47-1.066-.753-1.091-1.416-.024-.61.436-.936.67-.522.328.584 1.075 1.567.51-1.508.615-.465.734-.653.896-1.154.162-.5.33-.877.913-.565 1.21.649 2.251 1.273 3.656.973z" fill="url(#paint28_linear)"/><path fill-rule="evenodd" clip-rule="evenodd" d="M28.274 30.469c.013.188.028.377.043.565-1.872.323-2.809-.501-4.003-1.261-.429.734-.539.948-1.148 1.542.014.214.238 1.4.086 1.982-.122.474-.376.406-.652.118-.184-.192-.588-1.06-.932-.51.116-.374.442-.51.629-.18.328.584 1.074 1.567.51-1.508.615-.465.734-.653.895-1.153.162-.5.33-.878.914-.566 1.212.647 2.253 1.271 3.658.97z" fill="#FFA698"/><path fill-rule="evenodd" clip-rule="evenodd" d="M25.88 42.375l.507 11.92 2.088 2.64 1.37-3.179-3.187-11.604c.33-.974.22-1.197.033-1.341-.22-.169-.006-.188-.741-.1-.483.06-.978.11-.907.632.061.402.408.692.836 1.032z" fill="#0738AB"/><path fill-rule="evenodd" clip-rule="evenodd" d="M23.163 37.795c-.419.14-.73.28-.803.548-.252.926 1.344 3.534 2.382 3.778a3.642 3.642 0 011.27-1.452c-1.72-.506-2.66-1.35-2.849-2.874zm4.048-.095c.31.01.587.112.64.173.44.49.461 2.567-.243 3.749a5.654 5.654 0 00-1.647-1.156c1.537-.915 1.399-1.81 1.25-2.766z" fill="#4E9C3C"/><path fill-rule="evenodd" clip-rule="evenodd" d="M30.553 49.383l-8.303-1.605a.678.678 0 00-.792.537l-2.487 13.048a.678.678 0 00.535.791l8.303 1.605a.676.676 0 00.792-.535l2.488-13.048a.678.678 0 00-.535-.793z" fill="#9FD2FB"/><path fill-rule="evenodd" clip-rule="evenodd" d="M19.862 56.688l-.723 3.765c1.628.13 3.112.261 4.71.653.89.66 2.039 1.091 5.018.696l.453-2.377-2.352.034-7.106-2.771z" fill="#9FD2FB" opacity=".5"/><path fill-rule="evenodd" clip-rule="evenodd" d="M29.683 58.945c-.174 1.051-.271 1.603-.471 1.759-.506.392-2.5.288-3.54.13-.923-.13-1.314-1.27-1.979-1.319-.38-.898.497-2.017.996-2.725 1.378.522 3.762-.217 4.922.139.704.219.162 1.469.072 2.016z" fill="url(#paint29_linear)"/><path fill-rule="evenodd" clip-rule="evenodd" d="M29.541 59.767c-.1.523-.19.828-.328.937-.507.392-2.5.288-3.54.13-.923-.13-1.315-1.27-1.979-1.319-.38-.898.044.04.543-.667 1.497 1.212 3.164.906 5.304.92z" fill="url(#paint30_linear)"/><path fill-rule="evenodd" clip-rule="evenodd" d="M20.38 46.838c-1.696 2.187-3.584 3.771-3.181 5.064.652 2.09 3.523 3.223 8.175 4.909.213.687-.3 2.35-1.254 3.203-3.88-1.031-10.759-2.154-12.06-6.465-.391-1.318-.373-3.181.16-5.066.952-3.373 4.63-7.994 7.829-9.271 1.237-.5 1.58 6.013.331 7.626z" fill="url(#paint31_linear)"/><path fill-rule="evenodd" clip-rule="evenodd" d="M23.94 56.286c.457.17.936.344 1.436.523.212.686-.3 2.35-1.254 3.203-3.88-1.032-10.76-2.155-12.06-6.466 2.25 3.693 10.13 5.682 11.878 2.74z" fill="#6266D7" opacity=".35"/><defs><linearGradient id="paint0_linear" x1="70.464" y1="95.087" x2="87.493" y2="15.409" gradientUnits="userSpaceOnUse"><stop stop-color="#8DBEFF"/><stop offset="1" stop-color="#0090FA"/></linearGradient><linearGradient id="paint1_linear" x1="15498.7" y1="2370.32" x2="15437.9" y2="1181.63" gradientUnits="userSpaceOnUse"><stop stop-color="#0738A9"/><stop offset="1" stop-color="#9EB9E6"/></linearGradient><linearGradient id="paint2_linear" x1="5.765" y1="63.936" x2="8.981" y2="71.21" gradientUnits="userSpaceOnUse"><stop stop-color="#7BA8F3"/><stop offset="1" stop-color="#9EB9E6"/></linearGradient><linearGradient id="paint3_linear" x1="11.919" y1="17.843" x2="13.46" y2="15.042" gradientUnits="userSpaceOnUse"><stop stop-color="#169AFC"/><stop offset="1" stop-color="#3FB0F7"/></linearGradient><linearGradient id="paint4_linear" x1="103.912" y1="37.916" x2="104.434" y2="40.063" gradientUnits="userSpaceOnUse"><stop stop-color="#FF8A78"/><stop offset="1" stop-color="#FFA799"/></linearGradient><linearGradient id="paint5_linear" x1="101.869" y1="32.809" x2="103.242" y2="36.241" gradientUnits="userSpaceOnUse"><stop stop-color="#FFB89E"/><stop offset="1" stop-color="#FFA799"/></linearGradient><linearGradient id="paint6_linear" x1="102.105" y1="28.497" x2="104.211" y2="30.977" gradientUnits="userSpaceOnUse"><stop stop-color="#5A2D68"/><stop offset="1" stop-color="#22043D"/></linearGradient><linearGradient id="paint7_linear" x1="107.856" y1="47.752" x2="109.656" y2="53.648" gradientUnits="userSpaceOnUse"><stop stop-color="#178DE4"/><stop offset="1" stop-color="#17ADC9"/></linearGradient><linearGradient id="paint8_linear" x1="17266.1" y1="25900.9" x2="22461.9" y2="29408.6" gradientUnits="userSpaceOnUse"><stop stop-color="#235DA3"/><stop offset="1" stop-color="#123A76"/></linearGradient><linearGradient id="paint9_linear" x1="18790.4" y1="11813.3" x2="19966.9" y2="14578.6" gradientUnits="userSpaceOnUse"><stop stop-color="#178DE4"/><stop offset="1" stop-color="#17ADC9"/></linearGradient><linearGradient id="paint10_linear" x1="5355.46" y1="4199.84" x2="5439.66" y2="4216.92" gradientUnits="userSpaceOnUse"><stop stop-color="#FFB89E"/><stop offset="1" stop-color="#FFA799"/></linearGradient><linearGradient id="paint11_linear" x1="3219.12" y1="3259.84" x2="3179.97" y2="3256.95" gradientUnits="userSpaceOnUse"><stop stop-color="#FF8A78"/><stop offset="1" stop-color="#FFA799"/></linearGradient><linearGradient id="paint12_linear" x1="7967.3" y1="12214.3" x2="6682.05" y2="15234.1" gradientUnits="userSpaceOnUse"><stop stop-color="#178DE4"/><stop offset="1" stop-color="#17ADC9"/></linearGradient><linearGradient id="paint13_linear" x1="11306.4" y1="16271" x2="15572.6" y2="11038" gradientUnits="userSpaceOnUse"><stop stop-color="#965CF2"/><stop offset="1" stop-color="#FF8ADC"/></linearGradient><linearGradient id="paint14_linear" x1="22580.3" y1="3432.83" x2="23024.2" y2="1607.6" gradientUnits="userSpaceOnUse"><stop stop-color="#965CF2"/><stop offset="1" stop-color="#FF8ADC"/></linearGradient><linearGradient id="paint15_linear" x1="22813.7" y1="12978.6" x2="24639.5" y2="9483.88" gradientUnits="userSpaceOnUse"><stop stop-color="#965CF2"/><stop offset="1" stop-color="#FF8ADC"/></linearGradient><linearGradient id="paint16_linear" x1="28545.2" y1="9585.01" x2="28522.9" y2="11139.7" gradientUnits="userSpaceOnUse"><stop stop-color="#1B53D6"/><stop offset="1" stop-color="#255CDC"/></linearGradient><linearGradient id="paint17_linear" x1="3880.77" y1="5719.5" x2="4040.93" y2="6002.77" gradientUnits="userSpaceOnUse"><stop stop-color="#1C8EF4"/><stop offset="1" stop-color="#00CFDD"/></linearGradient><linearGradient id="paint18_linear" x1="19619.9" y1="15897.4" x2="21013.3" y2="13229.9" gradientUnits="userSpaceOnUse"><stop stop-color="#0738AB"/><stop offset="1" stop-color="#8CAFFF"/></linearGradient><linearGradient id="paint19_linear" x1="17711.2" y1="8591.8" x2="17728.1" y2="8003.5" gradientUnits="userSpaceOnUse"><stop stop-color="#3A9CE7"/><stop offset="1" stop-color="#0363F4"/></linearGradient><linearGradient id="paint20_linear" x1="69.56" y1="97.413" x2="69.581" y2="99.194" gradientUnits="userSpaceOnUse"><stop stop-color="#FDD248"/><stop offset="1" stop-color="#FABD23"/></linearGradient><linearGradient id="paint21_linear" x1="6632.83" y1="3157.28" x2="6692.75" y2="3296.47" gradientUnits="userSpaceOnUse"><stop stop-color="#FFB89E"/><stop offset="1" stop-color="#FFA799"/></linearGradient><linearGradient id="paint22_linear" x1="36.283" y1="38.689" x2="40.653" y2="49.913" gradientUnits="userSpaceOnUse"><stop stop-color="#70C851"/><stop offset="1" stop-color="#61C53E"/></linearGradient><linearGradient id="paint23_linear" x1="14.607" y1="103.073" x2="13.547" y2="100.683" gradientUnits="userSpaceOnUse"><stop stop-color="#002041"/><stop offset="1" stop-color="#004975"/></linearGradient><linearGradient id="paint24_linear" x1="2270.1" y1="1472.54" x2="2263.78" y2="1442.75" gradientUnits="userSpaceOnUse"><stop stop-color="#002041"/><stop offset="1" stop-color="#004975"/></linearGradient><linearGradient id="paint25_linear" x1="8852.66" y1="10260.5" x2="9878.63" y2="13673.7" gradientUnits="userSpaceOnUse"><stop stop-color="#70C851"/><stop offset="1" stop-color="#5E65D6"/></linearGradient><linearGradient id="paint26_linear" x1="1881.96" y1="1150.03" x2="1876.4" y2="1176" gradientUnits="userSpaceOnUse"><stop stop-color="#FFA698"/><stop offset="1" stop-color="#FFA698"/></linearGradient><linearGradient id="paint27_linear" x1="4179.44" y1="2473.13" x2="4195.19" y2="2672.48" gradientUnits="userSpaceOnUse"><stop stop-color="#5A2D68"/><stop offset="1" stop-color="#22043D"/></linearGradient><linearGradient id="paint28_linear" x1="3212.79" y1="2531" x2="3130.72" y2="2736.46" gradientUnits="userSpaceOnUse"><stop stop-color="#FFB89E"/><stop offset="1" stop-color="#FFA799"/></linearGradient><linearGradient id="paint29_linear" x1="3075.79" y1="2234.44" x2="3052.74" y2="2317.69" gradientUnits="userSpaceOnUse"><stop stop-color="#FFB89E"/><stop offset="1" stop-color="#FFA799"/></linearGradient><linearGradient id="paint30_linear" x1="2842.1" y1="1211.13" x2="2847.22" y2="1185.09" gradientUnits="userSpaceOnUse"><stop stop-color="#FF8A78"/><stop offset="1" stop-color="#FFA799"/></linearGradient><linearGradient id="paint31_linear" x1="6035.26" y1="9412.56" x2="5137.82" y2="10083" gradientUnits="userSpaceOnUse"><stop stop-color="#70C851"/><stop offset="1" stop-color="#5E65D6"/></linearGradient></defs></svg>