<svg version="1.0" xmlns="http://www.w3.org/2000/svg" width="256" height="256" viewBox="0 0 192 192"><path d="M102 19c-.8.5-1.5 1.3-1.6 1.7-.2 2.1-2.5 6.3-3.4 6.3-.5 0-.9.3-.8.7.3 1.3-3.5 8.3-4.4 8.3-.5 0-.6.4-.3 1 .3.5.1 1-.5 1s-.9.4-.6.8c.2.4-.7 2.6-2.2 4.9C85 48.6 82 54 82.3 54.3c.1.1-.8 1.5-1.9 3.2-1.2 1.6-2.5 4-2.8 5.3-.4 1.2-1.2 2-1.7 1.7-.5-.3-.6.1-.3.9.3.9.1 1.6-.5 1.6s-1.1.7-1.1 1.5-.5 1.5-1 1.5c-.6 0-.9.3-.9.7.3 2.1-.2 3.3-1.3 2.7-.6-.4-.8-.3-.5.3.4.6-.6 3-2.1 5.4-1.5 2.4-3.4 5.7-4.2 7.4-.8 1.6-2.1 3.8-2.9 4.7-.8 1-1.1 1.8-.8 1.8.5 0-2.3 4.9-5 8.5-.5.6-.9 1.7-1.1 2.5-.2.8-.7 1.7-1 2-.4.3-.8 1.2-1 2-.2.8-.8 1.6-1.3 1.8-.5.2-.9 1-.9 1.8s-.4 1.4-1 1.4c-.5 0-.9.3-.8.7.1.5-.8 2.7-2 5s-2.2 4.4-2.2 4.5c0 .2 9.6.3 21.3.2 11.6 0 21.7.1 22.2.3.6.2 1 9.2 1 24.3 0 17.2.3 24 1.1 24 .7 0 1.4-.8 1.7-1.8.4-.9 1.7-3.5 3-5.7s6.8-12.1 12.2-22c5.4-9.9 10.4-18.3 10.9-18.7.6-.4.8-.8.5-.8-.4 0 3.1-6.8 7.7-15.1 4.6-8.4 8.4-15.6 8.4-16 0-.5.5-.9 1-.9.6 0 .9-.3.8-.8-.3-.9 3.2-7.5 4.4-8.3.5-.3.9-.9.9-1.3-.2-1 3.1-7 4.1-7.7.5-.3 1-1 1-1.5s.3-1.5.6-2.2c.2-.7.3-1.5.1-1.7-.2-.2-9.9-.5-21.5-.6l-21.1-.3.1-23.9c.1-13.1-.1-24-.4-24.2-.3-.2-1.2 0-2 .5z"/></svg>